<svg width="394" height="394" viewBox="0 0 394 394" fill="none" xmlns="http://www.w3.org/2000/svg">
<path d="M255.178 28.4152C255.178 28.4152 192.658 3.85322 132.865 38.5173C73.0712 73.1815 44.3486 144.503 19.566 201.586C-5.21657 258.669 11.5284 317.903 58.6351 346.011C105.742 374.119 136.229 335.467 201.263 335.357C266.297 335.247 284.05 345.388 337.028 308.754C390.005 272.12 397.349 182.319 352.961 114.481C308.573 46.6416 255.178 28.4152 255.178 28.4152Z" fill="#FFC107"/>
<path opacity="0.7" d="M255.178 28.4152C255.178 28.4152 192.658 3.85322 132.865 38.5173C73.0712 73.1815 44.3486 144.503 19.566 201.586C-5.21657 258.669 11.5284 317.903 58.6351 346.011C105.742 374.119 136.229 335.467 201.263 335.357C266.297 335.247 284.05 345.388 337.028 308.754C390.005 272.12 397.349 182.319 352.961 114.481C308.573 46.6416 255.178 28.4152 255.178 28.4152Z" fill="white"/>
<path d="M353.024 355.467H344.356C344.251 355.467 344.151 355.425 344.077 355.351C344.003 355.277 343.962 355.177 343.962 355.073C343.962 354.968 344.003 354.868 344.077 354.794C344.151 354.72 344.251 354.679 344.356 354.679H353.024C353.128 354.679 353.229 354.72 353.303 354.794C353.376 354.868 353.418 354.968 353.418 355.073C353.418 355.177 353.376 355.277 353.303 355.351C353.229 355.425 353.128 355.467 353.024 355.467Z" fill="#263238"/>
<path d="M338.178 355.467H30.1962C30.0917 355.467 29.9914 355.425 29.9176 355.351C29.8437 355.277 29.8022 355.177 29.8022 355.073C29.8022 354.968 29.8437 354.868 29.9176 354.794C29.9914 354.72 30.0917 354.679 30.1962 354.679H338.178C338.283 354.679 338.383 354.72 338.457 354.794C338.531 354.868 338.572 354.968 338.572 355.073C338.572 355.177 338.531 355.277 338.457 355.351C338.383 355.425 338.283 355.467 338.178 355.467Z" fill="#263238"/>
<path d="M87.6965 201.003C87.6965 201.003 87.6965 197.709 83.0788 193.123C78.4612 188.537 75.4983 185.874 75.4983 185.874C75.4983 185.874 73.1973 193.454 77.4762 198.072C80.6374 201.317 84.064 204.293 87.7202 206.968L87.6965 201.003Z" fill="#FFC107"/>
<path d="M80.9985 221.586C80.9985 221.586 80.9985 218.292 76.3887 213.706C71.7789 209.12 68.8082 206.456 68.8082 206.456C68.8082 206.456 66.4993 214.037 70.786 218.646C73.9446 221.897 77.3714 224.876 81.03 227.551L80.9985 221.586Z" fill="#FFC107"/>
<path d="M87.405 206.614C87.405 206.614 87.7517 203.343 92.8264 199.238C97.9011 195.132 101.132 192.832 101.132 192.832C101.132 192.832 102.621 200.609 97.8775 204.746C94.3996 207.641 90.6857 210.24 86.7746 212.516L87.405 206.614Z" fill="#FFC107"/>
<path d="M79.3122 230.924C79.3122 230.924 80.0056 227.701 85.4822 224.155C90.9588 220.609 94.4103 218.639 94.4103 218.639C94.4103 218.639 95.0801 226.519 89.9266 230.143C86.1767 232.658 82.2229 234.853 78.1066 236.708L79.3122 230.924Z" fill="#FFC107"/>
<path d="M80.8331 257.424C80.8331 257.424 80.8331 254.13 85.4507 249.544C90.0684 244.958 93.0313 242.294 93.0313 242.294C93.0313 242.294 95.3323 249.875 91.0534 254.485C87.8945 257.733 84.4677 260.709 80.8094 263.381L80.8331 257.424Z" fill="#FFC107"/>
<path d="M80.7621 263.893C80.7621 263.893 81.227 260.631 77.3186 255.407C73.4101 250.182 70.8412 247.156 70.8412 247.156C70.8412 247.156 67.4843 254.327 71.0697 259.504C73.7283 263.16 76.6884 266.587 79.919 269.748L80.7621 263.893Z" fill="#FFC107"/>
<path d="M76.2075 283.058C76.2075 283.058 76.2075 279.764 80.8252 275.178C85.4428 270.591 88.4057 267.928 88.4057 267.928C88.4057 267.928 90.7067 275.501 86.4278 280.118C83.2665 283.364 79.84 286.339 76.1838 289.015L76.2075 283.058Z" fill="#FFC107"/>
<path d="M79.2886 300.441C79.2886 300.441 78.4533 297.289 81.7471 291.623C85.041 285.957 87.2631 282.687 87.2631 282.687C87.2631 282.687 91.4159 289.433 88.4372 294.98C86.2097 298.918 83.6582 302.663 80.8094 306.178L79.2886 300.441Z" fill="#FFC107"/>
<path d="M83.8117 316.366C83.7691 316.366 83.7276 316.352 83.6935 316.327C83.6594 316.301 83.6345 316.265 83.6226 316.224C83.5595 316.027 77.224 296.375 76.0184 289.149C75.3092 284.894 76.4518 281.001 77.7756 276.494C78.9937 272.666 79.8899 268.744 80.4548 264.768C81.1561 259.331 80.2105 253.933 79.2964 248.717C78.3824 243.5 77.5313 238.638 78.4454 234.343C79.3724 230.511 80.6736 226.779 82.3302 223.201C83.985 219.261 85.7029 215.258 86.6564 210.341C87.2625 206.952 87.6834 203.532 87.9172 200.097C87.9172 200.045 87.9379 199.995 87.9749 199.958C88.0118 199.921 88.0619 199.9 88.1142 199.9C88.1664 199.9 88.2165 199.921 88.2535 199.958C88.2904 199.995 88.3112 200.045 88.3112 200.097C88.0769 203.532 87.6534 206.952 87.0425 210.341C86.0811 215.305 84.3554 219.356 82.6927 223.28C81.0442 226.837 79.7508 230.548 78.8315 234.359C77.9332 238.575 78.7842 243.437 79.6826 248.543C80.5809 253.649 81.5501 259.221 80.8488 264.721C80.2843 268.745 79.3828 272.715 78.1538 276.588C76.8458 281.048 75.711 284.909 76.4045 289.07C77.6022 296.264 83.9299 315.862 83.9929 316.091C84.0015 316.115 84.0051 316.142 84.0034 316.168C84.0017 316.194 83.9947 316.22 83.983 316.243C83.9712 316.267 83.9549 316.288 83.935 316.305C83.915 316.322 83.8919 316.335 83.8668 316.343L83.8117 316.366Z" fill="#263238"/>
<path d="M87.3577 209.001C87.3279 209.001 87.2985 208.995 87.2714 208.983C87.2442 208.97 87.2199 208.953 87.2001 208.93C87.164 208.894 87.1438 208.844 87.1438 208.793C87.1438 208.741 87.164 208.691 87.2001 208.655L92.1724 204.833C92.2142 204.802 92.2667 204.788 92.3184 204.795C92.3701 204.803 92.4168 204.83 92.4482 204.872C92.4795 204.914 92.493 204.967 92.4856 205.018C92.4782 205.07 92.4506 205.117 92.4088 205.148L87.468 208.962C87.4373 208.988 87.398 209.002 87.3577 209.001Z" fill="#263238"/>
<path d="M87.5862 204.612C87.5519 204.612 87.5184 204.602 87.4893 204.584C87.4601 204.566 87.4364 204.54 87.4207 204.51L85.3404 200.806C85.3145 200.761 85.3075 200.708 85.3208 200.658C85.334 200.607 85.3666 200.565 85.4113 200.538C85.4577 200.515 85.5111 200.51 85.5608 200.525C85.6105 200.54 85.6528 200.572 85.6792 200.617L87.7596 204.321C87.7854 204.366 87.7924 204.419 87.7792 204.469C87.7659 204.519 87.7334 204.562 87.6886 204.589C87.6569 204.605 87.6217 204.613 87.5862 204.612Z" fill="#263238"/>
<path d="M78.9182 234.209C78.8874 234.211 78.8568 234.204 78.8292 234.191C78.8016 234.177 78.778 234.156 78.7606 234.131C78.7245 234.094 78.7043 234.044 78.7043 233.993C78.7043 233.941 78.7245 233.892 78.7606 233.855C78.7606 233.855 82.9764 230.703 87.2001 227.614C87.2178 227.595 87.2391 227.58 87.2628 227.57C87.2866 227.56 87.3121 227.554 87.338 227.554C87.3638 227.554 87.3894 227.56 87.4131 227.57C87.4368 227.58 87.4582 227.595 87.4759 227.614C87.512 227.651 87.5322 227.7 87.5322 227.752C87.5322 227.803 87.512 227.853 87.4759 227.89C83.2443 230.971 79.0758 234.099 79.0364 234.131C79.0072 234.17 78.9655 234.198 78.9182 234.209Z" fill="#263238"/>
<path d="M80.9985 227.732C80.9621 227.732 80.9263 227.722 80.8955 227.703C80.8648 227.683 80.8403 227.655 80.8252 227.622C80.8252 227.551 77.3185 220.79 73.4495 216.353C73.4306 216.336 73.4156 216.314 73.4053 216.291C73.3951 216.267 73.3898 216.241 73.3898 216.215C73.3898 216.19 73.3951 216.164 73.4053 216.14C73.4156 216.117 73.4306 216.095 73.4495 216.078C73.4863 216.041 73.5358 216.021 73.5874 216.021C73.6389 216.021 73.6884 216.041 73.7253 216.078C77.6653 220.553 81.1167 227.362 81.1482 227.425C81.1616 227.448 81.17 227.473 81.1728 227.5C81.1756 227.526 81.1729 227.553 81.1647 227.578C81.1565 227.603 81.1431 227.627 81.1253 227.646C81.1076 227.666 81.0858 227.682 81.0616 227.693C81.044 227.711 81.0224 227.724 80.9985 227.732Z" fill="#263238"/>
<path d="M80.9985 262.309C80.9702 262.318 80.9402 262.318 80.9119 262.309C80.8884 262.298 80.8675 262.282 80.8503 262.262C80.8332 262.242 80.8203 262.219 80.8122 262.194C80.8041 262.169 80.8011 262.142 80.8033 262.116C80.8056 262.09 80.813 262.065 80.8252 262.042C83.2176 257.648 86.2268 253.62 89.7611 250.08C89.7992 250.043 89.8501 250.023 89.9029 250.023C89.9558 250.023 90.0066 250.043 90.0448 250.08C90.0809 250.117 90.1011 250.166 90.1011 250.218C90.1011 250.269 90.0809 250.319 90.0448 250.356C86.5334 253.858 83.5427 257.847 81.164 262.199C81.1494 262.231 81.1262 262.258 81.0969 262.278C81.0677 262.297 81.0336 262.308 80.9985 262.309Z" fill="#263238"/>
<path d="M80.1869 266.935C80.1478 266.934 80.11 266.921 80.0778 266.899C80.0457 266.876 80.0207 266.845 80.0056 266.809C78.7506 263.848 77.2481 260.999 75.5141 258.291C73.1501 254.768 72.7639 254.272 72.7482 254.248C72.7326 254.228 72.7214 254.204 72.7149 254.179C72.7085 254.154 72.7071 254.128 72.7108 254.102C72.7144 254.077 72.7231 254.052 72.7363 254.03C72.7494 254.007 72.7669 253.988 72.7876 253.973C72.8083 253.957 72.8318 253.946 72.8569 253.939C72.8819 253.933 72.908 253.931 72.9336 253.935C72.9592 253.939 72.9839 253.947 73.0061 253.961C73.0284 253.974 73.0478 253.991 73.0634 254.012C73.0634 254.012 73.4416 254.524 75.845 258.07C77.5932 260.801 79.1088 263.674 80.376 266.659C80.3864 266.683 80.3921 266.709 80.3926 266.735C80.3931 266.761 80.3884 266.786 80.3789 266.811C80.3694 266.835 80.3552 266.857 80.3371 266.876C80.319 266.894 80.2974 266.909 80.2736 266.919L80.1869 266.935Z" fill="#263238"/>
<path d="M76.2075 289.314H76.1366C76.0889 289.295 76.0507 289.258 76.0301 289.211C76.0095 289.163 76.0081 289.11 76.0262 289.062C77.0863 286.432 78.3455 283.888 79.7929 281.45C81.2393 279.188 82.8708 277.051 84.6706 275.059C84.7074 275.023 84.7569 275.003 84.8085 275.003C84.8601 275.003 84.9096 275.023 84.9464 275.059C84.983 275.097 85.0034 275.148 85.0034 275.201C85.0034 275.254 84.983 275.305 84.9464 275.343C83.1624 277.307 81.5441 279.416 80.1081 281.647C78.6943 284.067 77.4668 286.59 76.436 289.196C76.4171 289.239 76.3842 289.274 76.3426 289.295C76.301 289.317 76.2533 289.324 76.2075 289.314Z" fill="#263238"/>
<path d="M80.7936 306.374C80.7452 306.375 80.6984 306.357 80.6621 306.325C80.6257 306.293 80.6024 306.249 80.5966 306.201C80.3472 303.66 80.7853 301.099 81.8653 298.786C83.2364 296.138 84.7336 292.868 85.7265 290.709C85.9866 290.149 86.1993 289.677 86.3727 289.314C86.3828 289.29 86.3978 289.269 86.4166 289.251C86.4354 289.233 86.4577 289.219 86.4821 289.21C86.5065 289.201 86.5325 289.198 86.5584 289.199C86.5843 289.201 86.6096 289.208 86.6327 289.22C86.6566 289.23 86.6782 289.245 86.696 289.264C86.7139 289.282 86.7277 289.305 86.7365 289.329C86.7454 289.353 86.7492 289.379 86.7476 289.405C86.746 289.431 86.7391 289.457 86.7273 289.48C86.5618 289.842 86.3412 290.315 86.089 290.874C85.0961 293.034 83.591 296.312 82.212 298.967C81.1754 301.212 80.7539 303.692 80.9906 306.154C80.9952 306.206 80.9799 306.257 80.9477 306.298C80.9154 306.339 80.8688 306.367 80.8173 306.374H80.7936Z" fill="#263238"/>
<path d="M57.524 245.068C57.524 245.068 57.1615 243.004 59.557 239.607C61.9526 236.211 63.497 234.241 63.497 234.241C63.497 234.241 65.7665 238.74 63.5837 242.121C61.9611 244.499 60.1423 246.737 58.1465 248.811L57.524 245.068Z" fill="#FFC107"/>
<path d="M63.9147 257.211C63.9147 257.211 63.5601 255.139 65.9477 251.75C68.3354 248.362 69.8877 246.376 69.8877 246.376C69.8877 246.376 72.1572 250.884 69.9665 254.256C68.3439 256.634 66.5251 258.872 64.5293 260.946L63.9147 257.211Z" fill="#FFC107"/>
<path d="M58.312 248.52C58.312 248.52 57.7368 246.502 54.112 244.477C50.4872 242.452 48.2098 241.365 48.2098 241.365C48.2098 241.365 48.1153 246.4 51.5431 248.457C54.036 249.895 56.6456 251.12 59.3443 252.121L58.312 248.52Z" fill="#FFC107"/>
<path d="M65.9871 262.877C65.9871 262.877 65.1991 260.931 61.3852 259.307C57.5713 257.684 55.16 256.825 55.16 256.825C55.16 256.825 55.6013 261.853 59.2261 263.555C61.8578 264.725 64.5834 265.671 67.374 266.384L65.9871 262.877Z" fill="#FFC107"/>
<path d="M67.9098 279.661C67.9098 279.661 67.5474 277.597 64.159 275.201C60.7706 272.806 58.643 271.482 58.643 271.482C58.643 271.482 58.0204 276.486 61.204 278.913C63.5251 280.605 65.9845 282.1 68.556 283.381L67.9098 279.661Z" fill="#FFC107"/>
<path d="M68.6584 283.68C68.6584 283.68 68.0123 281.686 69.8956 277.983C71.7789 274.279 73.0476 272.104 73.0476 272.104C73.0476 272.104 75.9396 276.241 74.2532 279.874C72.9834 282.457 71.4993 284.93 69.8168 287.265L68.6584 283.68Z" fill="#FFC107"/>
<path d="M74.4502 300.378C74.4502 300.378 74.6866 298.297 77.9411 295.713C81.1955 293.128 83.2601 291.678 83.2601 291.678C83.2601 291.678 84.1663 296.643 81.1246 299.243C78.9018 301.068 76.5295 302.702 74.0326 304.129L74.4502 300.378Z" fill="#FFC107"/>
<path d="M73.5913 295.24C73.5913 295.24 73.2367 293.136 69.8404 290.772C66.4442 288.408 64.3244 287.045 64.3244 287.045C64.3244 287.045 63.7019 292.049 66.8854 294.476C69.2162 296.169 71.6832 297.666 74.2611 298.952L73.5913 295.24Z" fill="#FFC107"/>
<path d="M73.544 306.469C73.544 306.469 73.7253 304.381 71.0461 301.205C68.3669 298.03 66.6333 296.201 66.6333 296.201C66.6333 296.201 64.7578 300.882 67.2322 304.042C69.055 306.268 71.0609 308.337 73.2288 310.228L73.544 306.469Z" fill="#FFC107"/>
<path d="M72.4251 317.02C72.3991 317.017 72.3741 317.008 72.3516 316.994C72.3291 316.98 72.3096 316.962 72.2942 316.941C72.2787 316.92 72.2677 316.896 72.2618 316.87C72.2559 316.844 72.2551 316.818 72.2596 316.792C72.2596 316.666 74.1114 303.672 74.0878 299.038C74.0878 296.367 72.9452 294.082 71.6371 291.434C70.4547 289.155 69.4611 286.783 68.6663 284.342C67.6262 280.962 67.634 277.447 67.6419 274.051C67.6498 270.655 67.6419 267.605 66.6333 265.076C65.6468 262.789 64.4352 260.606 63.0164 258.559C61.3597 256.166 59.9723 253.597 58.8794 250.899C58.1262 248.835 57.4896 246.731 56.9724 244.595C56.9653 244.57 56.9633 244.543 56.9667 244.517C56.97 244.491 56.9785 244.466 56.9917 244.443C57.005 244.421 57.0226 244.401 57.0436 244.385C57.0647 244.369 57.0887 244.357 57.1142 244.351C57.1644 244.339 57.2172 244.347 57.2614 244.374C57.3056 244.4 57.3376 244.443 57.3506 244.493C57.8677 246.612 58.5017 248.701 59.2497 250.75C60.3329 253.419 61.7071 255.962 63.3473 258.33C64.7745 260.4 65.9915 262.607 66.98 264.918C68.0359 267.518 68.028 270.694 68.0202 274.043C68.0123 277.392 68.0202 280.891 69.0288 284.216C69.8167 286.641 70.8024 288.997 71.9759 291.261C73.284 293.924 74.4266 296.288 74.4502 299.03C74.4502 303.703 72.6378 316.721 72.6142 316.847C72.6102 316.894 72.5886 316.939 72.5535 316.971C72.5185 317.003 72.4726 317.021 72.4251 317.02Z" fill="#263238"/>
<path d="M58.5405 250.08C58.5094 250.087 58.4771 250.087 58.446 250.08L54.9157 248.22C54.8932 248.209 54.8732 248.193 54.857 248.173C54.8407 248.154 54.8286 248.131 54.8212 248.107C54.8139 248.083 54.8115 248.057 54.8142 248.032C54.8169 248.007 54.8246 247.982 54.8369 247.96C54.8478 247.937 54.8633 247.916 54.8825 247.899C54.9016 247.882 54.924 247.869 54.9483 247.861C54.9727 247.853 54.9984 247.85 55.0239 247.852C55.0495 247.854 55.0743 247.861 55.097 247.873L58.6351 249.725C58.6737 249.746 58.7043 249.779 58.722 249.82C58.7396 249.86 58.7433 249.905 58.7324 249.947C58.7215 249.99 58.6967 250.028 58.662 250.055C58.6272 250.081 58.5845 250.096 58.5405 250.096V250.08Z" fill="#263238"/>
<path d="M57.918 247.353H57.855C57.8299 247.345 57.8068 247.332 57.7868 247.315C57.7669 247.298 57.7506 247.277 57.7388 247.254C57.7271 247.23 57.7201 247.205 57.7184 247.178C57.7167 247.152 57.7203 247.126 57.7289 247.101L58.6351 244.556C58.6545 244.508 58.6912 244.469 58.738 244.447C58.7847 244.425 58.8381 244.422 58.8872 244.438C58.9363 244.455 58.9764 244.492 58.9985 244.539C59.0207 244.587 59.0232 244.641 59.0054 244.69L58.1071 247.235C58.0896 247.27 58.0627 247.3 58.0293 247.321C57.9959 247.342 57.9574 247.353 57.918 247.353Z" fill="#263238"/>
<path d="M66.5702 264.973C66.5419 264.981 66.5119 264.981 66.4836 264.973C66.4836 264.973 63.497 263.452 60.5105 261.979C60.4646 261.954 60.43 261.912 60.4138 261.862C60.3977 261.812 60.4013 261.758 60.4238 261.711C60.446 261.666 60.4844 261.631 60.5312 261.614C60.5781 261.596 60.6298 261.597 60.676 261.616C63.6704 263.09 66.6254 264.603 66.649 264.618C66.6731 264.628 66.6947 264.643 66.7124 264.662C66.7302 264.681 66.7436 264.704 66.7518 264.729C66.76 264.753 66.7628 264.779 66.7601 264.805C66.7573 264.831 66.749 264.856 66.7357 264.878C66.719 264.907 66.6948 264.932 66.6658 264.948C66.6367 264.965 66.6037 264.973 66.5702 264.973Z" fill="#263238"/>
<path d="M64.5608 261.128H64.5057C64.4549 261.111 64.4125 261.076 64.3875 261.029C64.3625 260.982 64.3568 260.927 64.3717 260.875C65.2443 258.123 66.3954 255.467 67.8074 252.948C67.8337 252.903 67.8766 252.871 67.9268 252.858C67.9769 252.844 68.0303 252.851 68.0753 252.877C68.1193 252.906 68.1503 252.951 68.1621 253.003C68.1738 253.054 68.1653 253.108 68.1384 253.153C66.7445 255.658 65.6091 258.298 64.75 261.033C64.73 261.065 64.7019 261.09 64.6685 261.107C64.6352 261.123 64.598 261.131 64.5608 261.128Z" fill="#263238"/>
<path d="M68.3117 282.813C68.2811 282.813 68.251 282.806 68.2236 282.793C68.1963 282.779 68.1725 282.759 68.1541 282.735C66.1989 280.269 63.9009 278.096 61.33 276.281C61.3081 276.267 61.2893 276.248 61.2746 276.226C61.2599 276.205 61.2497 276.18 61.2446 276.155C61.2394 276.129 61.2395 276.102 61.2447 276.077C61.2499 276.051 61.2601 276.027 61.2749 276.005C61.2898 275.984 61.3088 275.966 61.3308 275.952C61.3528 275.938 61.3773 275.928 61.4029 275.924C61.4286 275.92 61.4548 275.92 61.4802 275.926C61.5056 275.932 61.5295 275.943 61.5507 275.958C64.1585 277.795 66.4885 279.998 68.4693 282.498C68.4882 282.516 68.5032 282.537 68.5135 282.561C68.5237 282.585 68.529 282.61 68.529 282.636C68.529 282.662 68.5237 282.688 68.5135 282.711C68.5032 282.735 68.4882 282.756 68.4693 282.774C68.4491 282.794 68.4238 282.809 68.396 282.816C68.3682 282.823 68.3391 282.822 68.3117 282.813Z" fill="#263238"/>
<path d="M69.344 285.627H69.2967C69.2713 285.621 69.2473 285.61 69.226 285.595C69.2047 285.581 69.1865 285.562 69.1726 285.54C69.1587 285.518 69.1493 285.493 69.1449 285.467C69.1405 285.442 69.1412 285.416 69.147 285.39C69.6182 283.375 70.2588 281.403 71.0618 279.496C72.1808 277.006 72.3542 276.659 72.362 276.651C72.3737 276.628 72.39 276.607 72.4099 276.59C72.4297 276.573 72.4528 276.56 72.4778 276.552C72.5027 276.543 72.529 276.54 72.5552 276.543C72.5813 276.545 72.6067 276.552 72.63 276.565C72.6753 276.588 72.7098 276.629 72.7259 276.677C72.7421 276.726 72.7388 276.778 72.7166 276.825C72.7166 276.825 72.5275 277.195 71.4164 279.661C70.6293 281.545 69.9993 283.49 69.5331 285.477C69.524 285.52 69.5001 285.558 69.4655 285.586C69.431 285.613 69.388 285.628 69.344 285.627Z" fill="#263238"/>
<path d="M74.072 302.805C74.026 302.803 73.9817 302.787 73.9459 302.758C73.9098 302.721 73.8896 302.671 73.8896 302.62C73.8896 302.568 73.9098 302.519 73.9459 302.482C75.1003 301.043 76.382 299.711 77.7756 298.502C78.6451 297.862 79.4619 297.153 80.2184 296.383C80.2347 296.36 80.2558 296.341 80.2802 296.326C80.3045 296.312 80.3316 296.304 80.3597 296.301C80.3877 296.298 80.416 296.301 80.4427 296.31C80.4694 296.32 80.4938 296.334 80.5142 296.354C80.5347 296.373 80.5508 296.396 80.5614 296.423C80.5721 296.449 80.577 296.477 80.5758 296.505C80.5747 296.533 80.5675 296.561 80.5548 296.586C80.542 296.611 80.5241 296.633 80.5021 296.651C79.7345 297.442 78.9016 298.167 78.012 298.818C76.6474 300.02 75.3898 301.338 74.2532 302.758C74.2283 302.778 74.1992 302.793 74.1679 302.801C74.1366 302.81 74.1038 302.811 74.072 302.805Z" fill="#263238"/>
<path d="M74.2532 299.235C74.2189 299.235 74.1851 299.226 74.1549 299.209C74.1247 299.193 74.099 299.169 74.0799 299.141C73.1436 297.621 72.0897 296.177 70.9279 294.823C69.7877 293.58 68.5492 292.431 67.2243 291.387C67.1894 291.348 67.1701 291.297 67.1701 291.245C67.1701 291.193 67.1894 291.142 67.2243 291.103C67.242 291.084 67.2633 291.069 67.287 291.059C67.3108 291.049 67.3363 291.043 67.3622 291.043C67.388 291.043 67.4136 291.049 67.4373 291.059C67.461 291.069 67.4824 291.084 67.5001 291.103C68.8482 292.157 70.1055 293.322 71.2588 294.586C72.4365 295.962 73.5061 297.427 74.4581 298.967C74.4828 299.012 74.4899 299.064 74.4783 299.114C74.4666 299.163 74.437 299.206 74.3951 299.235C74.3487 299.248 74.2996 299.248 74.2532 299.235Z" fill="#263238"/>
<path d="M73.2288 310.425C73.1792 310.425 73.1314 310.406 73.0948 310.373C73.0583 310.339 73.0358 310.293 73.0318 310.244C72.8981 308.685 72.3543 307.19 71.4558 305.91C70.3054 304.389 69.0052 302.498 68.1462 301.245L67.5946 300.457C67.5796 300.435 67.569 300.411 67.5632 300.386C67.5575 300.361 67.5568 300.335 67.5612 300.309C67.5656 300.283 67.575 300.259 67.5888 300.237C67.6027 300.215 67.6207 300.196 67.6419 300.181C67.6631 300.166 67.6871 300.155 67.7124 300.149C67.7378 300.144 67.764 300.143 67.7896 300.147C67.8152 300.152 67.8397 300.161 67.8617 300.175C67.8837 300.189 67.9027 300.207 67.9177 300.228L68.4693 301.016C69.3282 302.261 70.6206 304.168 71.771 305.665C72.7088 307.008 73.2669 308.579 73.3864 310.212C73.3886 310.238 73.3854 310.265 73.3768 310.289C73.3683 310.314 73.3547 310.337 73.3369 310.356C73.3192 310.375 73.2976 310.391 73.2735 310.401C73.2495 310.412 73.2235 310.417 73.1973 310.417L73.2288 310.425Z" fill="#263238"/>
<path d="M88.256 355.073H67.9335C67.6814 355.074 67.4315 355.025 67.1983 354.929C66.9651 354.834 66.753 354.693 66.5744 354.515C66.3957 354.337 66.254 354.126 66.1573 353.893C66.0605 353.66 66.0108 353.41 66.0108 353.158L62.9927 314.546H93.1731L90.1551 353.158C90.1551 353.663 89.9555 354.148 89.5998 354.507C89.2441 354.865 88.7611 355.069 88.256 355.073Z" fill="#263238"/>
<g opacity="0.3">
<path d="M123.243 149.72H33.6397C33.5352 149.72 33.435 149.678 33.3611 149.605C33.2872 149.531 33.2457 149.43 33.2457 149.326V30.0148C33.2457 29.9104 33.2872 29.8101 33.3611 29.7362C33.435 29.6624 33.5352 29.6208 33.6397 29.6208H123.243C123.348 29.6208 123.448 29.6624 123.522 29.7362C123.596 29.8101 123.637 29.9104 123.637 30.0148V149.287C123.643 149.341 123.637 149.397 123.619 149.449C123.602 149.502 123.574 149.55 123.537 149.591C123.5 149.632 123.454 149.664 123.404 149.687C123.353 149.709 123.298 149.72 123.243 149.72ZM34.0337 148.932H122.849V30.4088H34.0337V148.932Z" fill="black"/>
<path d="M120.32 145.78H36.5632C36.4587 145.78 36.3585 145.738 36.2846 145.665C36.2107 145.591 36.1692 145.49 36.1692 145.386V33.884C36.1692 33.7795 36.2107 33.6793 36.2846 33.6054C36.3585 33.5315 36.4587 33.49 36.5632 33.49H120.32C120.424 33.49 120.524 33.5315 120.598 33.6054C120.672 33.6793 120.714 33.7795 120.714 33.884V145.394C120.712 145.497 120.669 145.595 120.596 145.667C120.522 145.74 120.423 145.78 120.32 145.78ZM36.9572 144.992H119.926V34.3016H36.9572V144.992Z" fill="black"/>
<path d="M36.5632 116.175C36.4915 116.174 36.4214 116.154 36.3603 116.116C36.2992 116.079 36.2494 116.026 36.2165 115.962C36.1688 115.869 36.1594 115.76 36.1903 115.66C36.2212 115.56 36.29 115.476 36.382 115.426C45.05 110.934 65.8453 97.9482 71.4164 74.5052C76.0184 55.1598 82.543 42.1263 91.9596 33.6159C91.9955 33.5792 92.0385 33.5501 92.0858 33.5301C92.1332 33.5102 92.184 33.5 92.2354 33.5C92.2868 33.5 92.3376 33.5102 92.385 33.5301C92.4323 33.5501 92.4753 33.5792 92.5112 33.6159C92.5481 33.6525 92.5774 33.6961 92.5974 33.7441C92.6174 33.7921 92.6277 33.8436 92.6277 33.8956C92.6277 33.9476 92.6174 33.9991 92.5974 34.0472C92.5774 34.0952 92.5481 34.1387 92.5112 34.1754C83.2207 42.5755 76.7512 55.4514 72.2044 74.6628C66.5624 98.421 45.5464 111.557 36.7444 116.104C36.6916 116.143 36.6289 116.168 36.5632 116.175Z" fill="black"/>
<path d="M77.3107 145.78C77.2267 145.779 77.1451 145.752 77.0773 145.703C77.0094 145.653 76.9588 145.584 76.9324 145.504C70.9594 126.08 63.962 89.9502 84.2372 65.7665C95.088 52.796 107.168 42.9933 120.146 36.5474C120.193 36.5246 120.244 36.5111 120.295 36.5079C120.347 36.5046 120.399 36.5116 120.448 36.5284C120.497 36.5453 120.542 36.5716 120.581 36.606C120.62 36.6403 120.652 36.682 120.674 36.7287C120.718 36.823 120.724 36.9308 120.69 37.0293C120.657 37.1277 120.586 37.2092 120.493 37.2566C107.617 43.6473 95.6238 53.4106 84.844 66.2708C64.8051 90.1708 71.7632 126.033 77.6889 145.284C77.7188 145.384 77.7083 145.492 77.6597 145.585C77.6112 145.677 77.5283 145.747 77.4289 145.78H77.3107Z" fill="black"/>
<path d="M36.5632 86.0023C36.483 86.0015 36.4049 85.9763 36.3395 85.9299C36.274 85.8836 36.2242 85.8184 36.1968 85.743C36.1694 85.6676 36.1656 85.5856 36.1861 85.5081C36.2065 85.4305 36.2501 85.361 36.311 85.3089C41.11 81.1955 47.1224 73.4889 48.5172 59.9983C49.841 47.1854 45.6094 38.872 41.8192 34.1519C41.7645 34.0697 41.7427 33.97 41.7581 33.8725C41.7734 33.775 41.8248 33.6868 41.9021 33.6254C41.9794 33.5639 42.0769 33.5338 42.1753 33.5408C42.2738 33.5478 42.366 33.5916 42.4338 33.6633C46.3108 38.4938 50.6526 47.0042 49.2973 60.0771C47.8789 73.8119 41.764 81.7077 36.8232 85.892C36.7524 85.9584 36.6602 85.9975 36.5632 86.0023Z" fill="black"/>
<path d="M110.186 145.78C110.12 145.779 110.056 145.762 109.998 145.731C109.94 145.699 109.891 145.654 109.855 145.599C106.53 140.524 102.298 138.507 97.8144 136.387C93.7168 134.441 89.4774 132.447 86.0417 127.877C84.3521 125.663 83.2166 123.078 82.7299 120.336C82.2433 117.594 82.4197 114.776 83.2443 112.117C85.7817 103.031 94.3787 94.7806 106.238 90.0526C111.597 87.9952 116.342 84.6018 120.02 80.1947C120.086 80.1147 120.181 80.064 120.285 80.0537C120.388 80.0434 120.491 80.0742 120.572 80.1395C120.651 80.2082 120.7 80.3043 120.711 80.4083C120.721 80.5123 120.691 80.6163 120.627 80.699C116.865 85.2085 112.012 88.6807 106.53 90.7854C94.8988 95.411 86.4751 103.464 84.0008 112.314C83.2067 114.862 83.0356 117.564 83.5018 120.193C83.968 122.821 85.0579 125.299 86.68 127.42C89.9975 131.809 94.1502 133.787 98.1611 135.694C102.542 137.774 107.073 139.925 110.525 145.15C110.582 145.238 110.603 145.345 110.582 145.448C110.562 145.551 110.501 145.642 110.415 145.701C110.347 145.748 110.268 145.775 110.186 145.78Z" fill="black"/>
<path d="M59.888 145.78C59.7848 145.774 59.6877 145.729 59.6161 145.655C59.5445 145.58 59.5037 145.481 59.5019 145.378C59.7068 135.922 58.1544 129.216 54.8842 125.56C54.4904 125.07 53.9835 124.682 53.4071 124.431C52.8306 124.18 52.2018 124.072 51.5746 124.118C47.9655 124.386 42.9066 129.35 36.9257 138.46C36.8691 138.547 36.7802 138.609 36.6782 138.631C36.5763 138.653 36.4698 138.634 36.3819 138.578C36.2938 138.52 36.2319 138.429 36.2098 138.326C36.1877 138.223 36.2071 138.115 36.2637 138.026C42.4653 128.57 47.5952 123.629 51.5194 123.33C52.265 123.28 53.0117 123.409 53.6971 123.706C54.3826 124.004 54.9869 124.461 55.4594 125.04C58.8636 128.846 60.4869 135.694 60.2741 145.394C60.2721 145.496 60.2308 145.593 60.1588 145.665C60.0868 145.737 59.9898 145.778 59.888 145.78Z" fill="black"/>
<path d="M63.1109 58.84C62.8832 58.8386 62.6572 58.8014 62.4411 58.7297C58.6351 57.4374 57.5949 44.5457 57.3822 33.9156C57.3811 33.8638 57.3903 33.8124 57.4091 33.7642C57.428 33.716 57.4561 33.6719 57.492 33.6346C57.5278 33.5973 57.5707 33.5674 57.6181 33.5467C57.6655 33.5259 57.7165 33.5147 57.7683 33.5137C57.8714 33.5137 57.9705 33.5541 58.0441 33.6263C58.1178 33.6985 58.1602 33.7967 58.1623 33.8998C58.446 48.3281 60.0929 57.1064 62.6854 57.9811C63.5286 58.2648 64.5608 57.6501 65.7507 56.1529C70.5575 50.1168 74.332 40.653 76.6488 33.7816C76.6647 33.7326 76.6904 33.6872 76.7241 33.6482C76.7579 33.6093 76.7992 33.5775 76.8454 33.5547C76.8917 33.5319 76.9421 33.5187 76.9936 33.5157C77.045 33.5127 77.0966 33.52 77.1452 33.5373C77.2444 33.5698 77.3267 33.6403 77.374 33.7334C77.4213 33.8264 77.4297 33.9345 77.3974 34.0338C75.0334 40.9682 71.2431 50.5187 66.3654 56.6415C65.2149 58.0993 64.1196 58.84 63.1109 58.84Z" fill="black"/>
<path d="M100.903 74.9703C99.6426 74.9703 98.8546 74.6235 98.5394 73.9222C97.1919 71.1406 104.442 62.8902 120.091 49.3918C120.127 49.3551 120.17 49.3259 120.217 49.306C120.265 49.2861 120.316 49.2759 120.367 49.2759C120.418 49.2759 120.469 49.2861 120.517 49.306C120.564 49.3259 120.607 49.3551 120.643 49.3918C120.716 49.4667 120.756 49.5671 120.756 49.6715C120.756 49.7759 120.716 49.8763 120.643 49.9513C106.159 62.4411 98.1769 71.2273 99.288 73.5361C99.5953 74.1823 100.919 74.3241 102.992 73.9143C108.823 72.7717 114.583 69.3912 120.107 63.8673C120.144 63.8304 120.187 63.8011 120.235 63.7811C120.283 63.7611 120.335 63.7508 120.387 63.7508C120.439 63.7508 120.49 63.7611 120.538 63.7811C120.586 63.8011 120.63 63.8304 120.666 63.8673C120.739 63.9423 120.78 64.0426 120.78 64.1471C120.78 64.2515 120.739 64.3518 120.666 64.4268C115.032 70.0689 109.13 73.5282 103.141 74.6708C102.407 74.8446 101.657 74.9449 100.903 74.9703Z" fill="black"/>
</g>
<g opacity="0.3">
<path d="M364.174 238.204H256.683C256.579 238.204 256.478 238.163 256.405 238.089C256.331 238.015 256.289 237.915 256.289 237.81V78.1378C256.302 66.1348 260.302 54.4762 267.661 44.9939C275.021 35.5116 285.322 28.7431 296.946 25.752C308.571 22.7609 320.859 23.7167 331.881 28.4692C342.903 33.2217 352.034 41.5016 357.839 52.0077C357.889 52.0997 357.9 52.2078 357.871 52.3083C357.841 52.4088 357.773 52.4934 357.681 52.5436C357.589 52.5937 357.481 52.6053 357.381 52.5758C357.28 52.5462 357.195 52.4779 357.145 52.386C351.429 42.0217 342.429 33.8524 331.561 29.1637C320.693 24.4749 308.575 23.5329 297.113 26.4859C285.651 29.4389 275.497 36.1193 268.247 45.4756C260.998 54.832 257.066 66.3332 257.069 78.1693V237.416H363.78V78.1378C363.798 70.6371 362.221 63.2183 359.155 56.3733C359.114 56.2779 359.112 56.1705 359.149 56.0736C359.185 55.9767 359.258 55.8977 359.352 55.8532C359.399 55.8312 359.45 55.8191 359.503 55.8175C359.555 55.816 359.607 55.8251 359.656 55.8442C359.704 55.8634 359.748 55.8922 359.786 55.929C359.823 55.9657 359.852 56.0096 359.872 56.0581C362.996 62.9937 364.608 70.5152 364.6 78.1221V237.81C364.6 237.865 364.589 237.919 364.567 237.969C364.545 238.019 364.513 238.064 364.473 238.101C364.433 238.138 364.386 238.166 364.335 238.184C364.283 238.202 364.229 238.209 364.174 238.204Z" fill="black"/>
<path d="M352.039 237.629C351.934 237.629 351.834 237.588 351.76 237.514C351.687 237.44 351.645 237.34 351.645 237.235V79.8715C351.641 73.0702 349.955 66.3754 346.737 60.3836C343.519 54.3918 338.869 49.289 333.201 45.5298C327.533 41.7706 321.023 39.4718 314.251 38.8381C307.479 38.2044 300.656 39.2555 294.389 41.8978C294.341 41.9184 294.289 41.9293 294.237 41.9297C294.185 41.9302 294.133 41.9202 294.084 41.9004C294.036 41.8806 293.992 41.8514 293.955 41.8144C293.918 41.7774 293.889 41.7334 293.869 41.685C293.848 41.6375 293.838 41.5864 293.837 41.5347C293.837 41.4829 293.847 41.4316 293.867 41.3839C293.887 41.3361 293.916 41.2928 293.953 41.2565C293.99 41.2203 294.033 41.1918 294.082 41.1728C300.468 38.4798 307.422 37.4084 314.323 38.0541C321.225 38.6997 327.859 41.0424 333.636 44.8733C339.412 48.7043 344.151 53.9046 347.431 60.011C350.711 66.1173 352.429 72.9401 352.433 79.8715V237.235C352.433 237.34 352.391 237.44 352.318 237.514C352.244 237.588 352.143 237.629 352.039 237.629Z" fill="black"/>
<path d="M268.818 237.629C268.714 237.629 268.614 237.588 268.54 237.514C268.466 237.44 268.424 237.34 268.424 237.235V79.8716C268.401 72.0803 270.554 64.4372 274.642 57.8043C278.73 51.1713 284.589 45.8122 291.56 42.3313C291.606 42.3071 291.656 42.2924 291.708 42.288C291.759 42.2836 291.812 42.2897 291.861 42.3059C291.91 42.3221 291.956 42.348 291.995 42.3822C292.034 42.4163 292.065 42.458 292.088 42.5047C292.135 42.5977 292.143 42.7055 292.11 42.8044C292.078 42.9034 292.007 42.9854 291.915 43.0326C285.072 46.4466 279.319 51.7047 275.304 58.2139C271.29 64.723 269.175 72.2243 269.197 79.8716V237.235C269.197 237.337 269.157 237.435 269.087 237.508C269.016 237.582 268.92 237.625 268.818 237.629Z" fill="black"/>
<path d="M310.472 237.921C310.368 237.921 310.267 237.879 310.193 237.805C310.12 237.731 310.078 237.631 310.078 237.527V88.8391C310.078 88.7346 310.12 88.6344 310.193 88.5605C310.267 88.4866 310.368 88.4451 310.472 88.4451C310.576 88.4451 310.677 88.4866 310.751 88.5605C310.824 88.6344 310.866 88.7346 310.866 88.8391V237.527C310.864 237.631 310.822 237.73 310.748 237.803C310.675 237.877 310.576 237.919 310.472 237.921Z" fill="black"/>
<path d="M310.472 84.5681C310.368 84.5681 310.267 84.5266 310.193 84.4527C310.12 84.3788 310.078 84.2786 310.078 84.1741V24.4279C310.078 24.3234 310.12 24.2232 310.193 24.1493C310.267 24.0754 310.368 24.0339 310.472 24.0339C310.576 24.0339 310.677 24.0754 310.751 24.1493C310.824 24.2232 310.866 24.3234 310.866 24.4279V84.2056C310.858 84.3046 310.813 84.3968 310.74 84.4641C310.667 84.5313 310.571 84.5684 310.472 84.5681Z" fill="black"/>
<path d="M363.457 72.3227H257.258C257.154 72.3227 257.054 72.2812 256.98 72.2073C256.906 72.1334 256.864 72.0332 256.864 71.9287C256.864 71.8242 256.906 71.724 256.98 71.6501C257.054 71.5762 257.154 71.5347 257.258 71.5347H363.457C363.562 71.5347 363.662 71.5762 363.736 71.6501C363.81 71.724 363.851 71.8242 363.851 71.9287C363.851 72.0332 363.81 72.1334 363.736 72.2073C363.662 72.2812 363.562 72.3227 363.457 72.3227Z" fill="black"/>
<path d="M363.457 105.718H273.869C273.765 105.718 273.665 105.676 273.591 105.603C273.517 105.529 273.475 105.428 273.475 105.324C273.477 105.22 273.52 105.121 273.593 105.048C273.667 104.974 273.766 104.932 273.869 104.93H363.457C363.561 104.932 363.66 104.974 363.734 105.048C363.807 105.121 363.849 105.22 363.851 105.324C363.851 105.428 363.81 105.529 363.736 105.603C363.662 105.676 363.562 105.718 363.457 105.718Z" fill="black"/>
<path d="M270.379 105.718H257.258C257.154 105.718 257.054 105.676 256.98 105.603C256.906 105.529 256.864 105.428 256.864 105.324C256.866 105.22 256.909 105.121 256.982 105.048C257.055 104.974 257.154 104.932 257.258 104.93H270.379C270.482 104.932 270.581 104.974 270.655 105.048C270.728 105.121 270.771 105.22 270.773 105.324C270.773 105.428 270.731 105.529 270.657 105.603C270.583 105.676 270.483 105.718 270.379 105.718Z" fill="black"/>
<path d="M363.457 139.239H257.258C257.154 139.239 257.054 139.198 256.98 139.124C256.906 139.05 256.864 138.95 256.864 138.845C256.864 138.741 256.906 138.641 256.98 138.567C257.054 138.493 257.154 138.451 257.258 138.451H363.457C363.562 138.451 363.662 138.493 363.736 138.567C363.81 138.641 363.851 138.741 363.851 138.845C363.851 138.95 363.81 139.05 363.736 139.124C363.662 139.198 363.562 139.239 363.457 139.239Z" fill="black"/>
<path d="M363.457 172.761H347.043C346.939 172.759 346.84 172.717 346.767 172.644C346.693 172.57 346.651 172.471 346.649 172.367C346.649 172.263 346.691 172.162 346.764 172.089C346.838 172.015 346.939 171.973 347.043 171.973H363.457C363.562 171.973 363.662 172.015 363.736 172.089C363.81 172.162 363.851 172.263 363.851 172.367C363.849 172.471 363.807 172.57 363.733 172.644C363.66 172.717 363.561 172.759 363.457 172.761Z" fill="black"/>
<path d="M342.087 172.761H257.258C257.154 172.759 257.055 172.717 256.982 172.644C256.909 172.57 256.866 172.471 256.864 172.367C256.864 172.263 256.906 172.162 256.98 172.089C257.054 172.015 257.154 171.973 257.258 171.973H342.087C342.191 171.973 342.291 172.015 342.365 172.089C342.439 172.162 342.481 172.263 342.481 172.367C342.481 172.472 342.439 172.572 342.365 172.646C342.291 172.72 342.191 172.761 342.087 172.761Z" fill="black"/>
<path d="M363.457 206.275H294.862C294.757 206.275 294.657 206.233 294.583 206.159C294.509 206.085 294.468 205.985 294.468 205.881C294.468 205.776 294.509 205.676 294.583 205.602C294.657 205.528 294.757 205.487 294.862 205.487H363.457C363.561 205.489 363.66 205.531 363.733 205.604C363.807 205.678 363.849 205.777 363.851 205.881C363.851 205.985 363.81 206.085 363.736 206.159C363.662 206.233 363.562 206.275 363.457 206.275Z" fill="black"/>
<path d="M290.488 206.275H257.258C257.154 206.275 257.054 206.233 256.98 206.159C256.906 206.085 256.864 205.985 256.864 205.881C256.866 205.777 256.909 205.678 256.982 205.604C257.055 205.531 257.154 205.489 257.258 205.487H290.488C290.593 205.487 290.693 205.528 290.767 205.602C290.841 205.676 290.882 205.776 290.882 205.881C290.882 205.985 290.841 206.085 290.767 206.159C290.693 206.233 290.593 206.275 290.488 206.275Z" fill="black"/>
<path d="M281.087 50.3296C281.039 50.3306 280.992 50.322 280.947 50.3044C280.903 50.2868 280.862 50.2606 280.827 50.2271L271.198 41.4567C271.161 41.4207 271.132 41.3778 271.112 41.3305C271.092 41.2831 271.082 41.2323 271.082 41.1809C271.082 41.1295 271.092 41.0787 271.112 41.0313C271.132 40.984 271.161 40.941 271.198 40.9051C271.273 40.8324 271.373 40.7917 271.478 40.7917C271.582 40.7917 271.683 40.8324 271.758 40.9051L281.355 49.644C281.392 49.6806 281.422 49.7242 281.442 49.7722C281.462 49.8202 281.472 49.8717 281.472 49.9238C281.472 49.9758 281.462 50.0273 281.442 50.0753C281.422 50.1233 281.392 50.1669 281.355 50.2035C281.322 50.2418 281.281 50.2728 281.235 50.2945C281.188 50.3162 281.138 50.3281 281.087 50.3296Z" fill="black"/>
<path d="M339.368 50.3294C339.313 50.3302 339.259 50.3195 339.209 50.2977C339.158 50.276 339.113 50.2438 339.076 50.2033C339.039 50.1667 339.01 50.1231 338.99 50.0751C338.97 50.0271 338.96 49.9756 338.96 49.9236C338.96 49.8715 338.97 49.8201 338.99 49.772C339.01 49.724 339.039 49.6804 339.076 49.6438L348.706 40.8734C348.742 40.8365 348.786 40.8071 348.834 40.7871C348.882 40.7671 348.933 40.7568 348.985 40.7568C349.037 40.7568 349.089 40.7671 349.137 40.7871C349.185 40.8071 349.229 40.8365 349.265 40.8734C349.302 40.9093 349.331 40.9522 349.351 40.9996C349.371 41.047 349.381 41.0978 349.381 41.1492C349.381 41.2006 349.371 41.2514 349.351 41.2988C349.331 41.3461 349.302 41.389 349.265 41.425L339.628 50.2269C339.594 50.2604 339.553 50.2866 339.508 50.3042C339.464 50.3218 339.416 50.3304 339.368 50.3294Z" fill="black"/>
</g>
<path d="M264.185 53.9702H232.35C231.262 53.9702 230.186 54.1845 229.182 54.6008C228.177 55.0171 227.265 55.6273 226.496 56.3964C225.728 57.1655 225.119 58.0786 224.703 59.0834C224.288 60.0881 224.075 61.1649 224.076 62.2521V76.8931C224.076 78.7989 224.732 80.6465 225.935 82.1248C227.138 83.6031 228.813 84.6219 230.679 85.0095L223.792 93.8982L240.159 85.175H264.169C266.366 85.175 268.472 84.3025 270.025 82.7493C271.578 81.1962 272.451 79.0896 272.451 76.8931V62.2521C272.452 61.1655 272.239 60.0894 271.824 59.0852C271.409 58.0809 270.801 57.1682 270.033 56.3992C269.266 55.6301 268.354 55.0198 267.351 54.6031C266.347 54.1863 265.271 53.9712 264.185 53.9702Z" fill="#263238"/>
<path d="M223.792 94.2921C223.736 94.2916 223.68 94.2794 223.628 94.2564C223.577 94.2333 223.531 94.1999 223.493 94.1581C223.436 94.0879 223.405 94.0003 223.405 93.9099C223.405 93.8195 223.436 93.7319 223.493 93.6617L229.994 85.2458C228.179 84.7249 226.584 83.6286 225.447 82.1221C224.31 80.6156 223.693 78.7804 223.69 76.893V62.252C223.69 59.9531 224.603 57.7483 226.228 56.1228C227.854 54.4972 230.059 53.584 232.358 53.584H264.193C266.492 53.584 268.696 54.4972 270.322 56.1228C271.948 57.7483 272.861 59.9531 272.861 62.252V76.893C272.861 79.1919 271.948 81.3967 270.322 83.0222C268.696 84.6478 266.492 85.561 264.193 85.561H240.269L223.997 94.229C223.935 94.2675 223.865 94.2892 223.792 94.2921ZM232.35 54.372C230.26 54.372 228.255 55.2022 226.778 56.68C225.3 58.1578 224.47 60.1621 224.47 62.252V76.893C224.467 78.711 225.094 80.4737 226.243 81.8826C227.392 83.2914 228.992 84.2597 230.774 84.6233C230.839 84.6354 230.901 84.6642 230.952 84.7071C231.003 84.7499 231.042 84.8052 231.065 84.8676C231.087 84.9304 231.094 84.9976 231.084 85.0635C231.075 85.1294 231.049 85.192 231.01 85.2458L225.258 92.6924L240.001 84.8124C240.059 84.7804 240.124 84.7641 240.19 84.7651H264.201C266.291 84.7651 268.295 83.9349 269.773 82.4571C271.25 80.9794 272.081 78.9751 272.081 76.8851V62.252C272.081 60.1621 271.25 58.1578 269.773 56.68C268.295 55.2022 266.291 54.372 264.201 54.372H232.35Z" fill="#263238"/>
<path d="M263.255 50.5503H231.42C230.332 50.5503 229.255 50.7645 228.25 51.1807C227.246 51.5969 226.333 52.207 225.564 52.976C224.795 53.745 224.185 54.658 223.768 55.6628C223.352 56.6676 223.138 57.7446 223.138 58.8322V73.4732C223.137 75.3805 223.794 77.2297 224.999 78.7084C226.203 80.1872 227.881 81.2049 229.749 81.5896L222.878 90.4861L239.237 81.7551H263.255C264.343 81.7551 265.42 81.5409 266.424 81.1247C267.429 80.7085 268.342 80.0984 269.111 79.3294C269.88 78.5603 270.49 77.6474 270.906 76.6425C271.323 75.6377 271.537 74.5608 271.537 73.4732V58.8322C271.537 57.7446 271.323 56.6676 270.906 55.6628C270.49 54.658 269.88 53.745 269.111 52.976C268.342 52.207 267.429 51.5969 266.424 51.1807C265.42 50.7645 264.343 50.5503 263.255 50.5503Z" fill="white"/>
<path d="M222.878 90.88C222.805 90.8783 222.733 90.8565 222.671 90.817C222.61 90.7776 222.56 90.7219 222.527 90.6562C222.495 90.5905 222.481 90.5171 222.487 90.444C222.493 90.371 222.52 90.301 222.563 90.2417L229.064 81.8259C227.25 81.3049 225.654 80.2087 224.517 78.7022C223.38 77.1957 222.763 75.3605 222.76 73.4731V58.8321C222.76 56.5332 223.673 54.3284 225.298 52.7029C226.924 51.0773 229.129 50.1641 231.428 50.1641H263.263C265.562 50.1641 267.767 51.0773 269.392 52.7029C271.018 54.3284 271.931 56.5332 271.931 58.8321V73.4731C271.931 75.772 271.018 77.9767 269.392 79.6023C267.767 81.2279 265.562 82.1411 263.263 82.1411H239.339L223.059 90.8091C223.006 90.8488 222.944 90.8733 222.878 90.88ZM231.42 50.9442C229.33 50.9442 227.326 51.7744 225.848 53.2522C224.37 54.73 223.54 56.7343 223.54 58.8242V73.4731C223.538 75.291 224.164 77.0538 225.313 78.4627C226.462 79.8715 228.063 80.8398 229.844 81.2034C229.909 81.2155 229.971 81.2443 230.022 81.2871C230.073 81.3299 230.112 81.3852 230.135 81.4477C230.158 81.5103 230.165 81.5777 230.156 81.6438C230.146 81.7098 230.12 81.7724 230.08 81.8259L224.328 89.2725L239.071 81.3925C239.127 81.3611 239.189 81.3448 239.253 81.3452H263.271C265.361 81.3452 267.365 80.515 268.843 79.0372C270.321 77.5594 271.151 75.5551 271.151 73.4652V58.8321C271.151 56.7422 270.321 54.7379 268.843 53.2601C267.365 51.7823 265.361 50.9521 263.271 50.9521L231.42 50.9442Z" fill="#263238"/>
<path d="M240.592 66.8144C240.592 67.2075 240.475 67.5917 240.257 67.9184C240.038 68.2452 239.728 68.4997 239.364 68.6497C239.001 68.7998 238.602 68.8387 238.216 68.7614C237.831 68.6841 237.477 68.4942 237.199 68.2157C236.922 67.9372 236.734 67.5827 236.658 67.1969C236.582 66.8112 236.623 66.4117 236.774 66.049C236.926 65.6863 237.181 65.3767 237.509 65.1595C237.837 64.9422 238.221 64.8271 238.614 64.8286C238.875 64.8286 239.133 64.88 239.373 64.9799C239.613 65.0798 239.832 65.2262 240.016 65.4107C240.199 65.5952 240.345 65.8142 240.444 66.0551C240.543 66.2959 240.593 66.554 240.592 66.8144Z" fill="#263238"/>
<path d="M238.614 69.1943C238.147 69.1943 237.69 69.0557 237.301 68.7959C236.912 68.5361 236.609 68.1669 236.43 67.735C236.251 67.303 236.204 66.8277 236.296 66.3691C236.387 65.9105 236.612 65.4893 236.943 65.1587C237.273 64.8281 237.695 64.6029 238.153 64.5117C238.612 64.4205 239.087 64.4673 239.519 64.6463C239.951 64.8252 240.32 65.1282 240.58 65.5169C240.84 65.9057 240.978 66.3628 240.978 66.8303C240.978 67.4573 240.729 68.0586 240.286 68.5019C239.843 68.9452 239.241 69.1943 238.614 69.1943ZM238.614 65.2543C238.303 65.2543 237.998 65.3467 237.739 65.5199C237.48 65.6931 237.278 65.9392 237.158 66.2272C237.039 66.5152 237.008 66.8321 237.069 67.1378C237.129 67.4435 237.279 67.7243 237.5 67.9447C237.72 68.1651 238.001 68.3152 238.307 68.376C238.613 68.4368 238.929 68.4056 239.217 68.2863C239.505 68.1671 239.751 67.9651 239.925 67.7059C240.098 67.4467 240.19 67.142 240.19 66.8303C240.194 66.6207 240.157 66.4124 240.079 66.2175C240.002 66.0227 239.887 65.8452 239.74 65.6955C239.593 65.5458 239.418 65.4269 239.225 65.3457C239.031 65.2645 238.824 65.2227 238.614 65.2228V65.2543Z" fill="#263238"/>
<path d="M249.717 66.8146C249.717 67.2074 249.601 67.5913 249.383 67.9179C249.164 68.2444 248.854 68.4989 248.491 68.6492C248.128 68.7995 247.729 68.8388 247.344 68.7622C246.959 68.6856 246.605 68.4965 246.327 68.2188C246.05 67.941 245.86 67.5872 245.784 67.202C245.707 66.8168 245.747 66.4176 245.897 66.0547C246.047 65.6919 246.302 65.3817 246.628 65.1635C246.955 64.9453 247.339 64.8289 247.731 64.8289C248.258 64.8289 248.763 65.0381 249.136 65.4105C249.508 65.7829 249.717 66.288 249.717 66.8146Z" fill="#263238"/>
<path d="M247.731 69.1943C247.264 69.1943 246.807 69.0557 246.418 68.7959C246.029 68.5361 245.726 68.1669 245.547 67.735C245.368 67.303 245.322 66.8277 245.413 66.3691C245.504 65.9105 245.729 65.4893 246.06 65.1587C246.39 64.8281 246.812 64.6029 247.27 64.5117C247.729 64.4205 248.204 64.4673 248.636 64.6463C249.068 64.8252 249.437 65.1282 249.697 65.5169C249.957 65.9057 250.095 66.3628 250.095 66.8303C250.095 67.4573 249.846 68.0586 249.403 68.5019C248.96 68.9452 248.358 69.1943 247.731 69.1943ZM247.731 65.2543C247.42 65.2543 247.115 65.3467 246.856 65.5199C246.597 65.6931 246.395 65.9392 246.275 66.2272C246.156 66.5152 246.125 66.8321 246.186 67.1378C246.247 67.4435 246.397 67.7243 246.617 67.9447C246.837 68.1651 247.118 68.3152 247.424 68.376C247.73 68.4368 248.047 68.4056 248.335 68.2863C248.623 68.1671 248.869 67.9651 249.042 67.7059C249.215 67.4467 249.307 67.142 249.307 66.8303C249.312 66.6207 249.274 66.4124 249.197 66.2175C249.119 66.0227 249.004 65.8452 248.857 65.6955C248.71 65.5458 248.535 65.4269 248.342 65.3457C248.149 65.2645 247.941 65.2227 247.731 65.2228V65.2543Z" fill="#263238"/>
<path d="M258.842 66.8144C258.842 67.2085 258.725 67.5936 258.505 67.9208C258.286 68.248 257.974 68.5025 257.609 68.6518C257.244 68.8011 256.843 68.8386 256.457 68.7594C256.071 68.6802 255.718 68.4879 255.441 68.207C255.165 67.9261 254.978 67.5694 254.905 67.1821C254.832 66.7948 254.876 66.3946 255.031 66.0324C255.186 65.6701 255.446 65.3622 255.776 65.1479C256.107 64.9335 256.494 64.8224 256.888 64.8286C257.409 64.8369 257.906 65.0498 258.272 65.4213C258.637 65.7928 258.842 66.2931 258.842 66.8144Z" fill="#263238"/>
<path d="M256.888 69.1943C256.42 69.1943 255.963 69.0557 255.575 68.7959C255.186 68.5361 254.883 68.1669 254.704 67.735C254.525 67.303 254.478 66.8277 254.569 66.3691C254.661 65.9105 254.886 65.4893 255.216 65.1587C255.547 64.8281 255.968 64.6029 256.427 64.5117C256.885 64.4205 257.361 64.4673 257.793 64.6463C258.225 64.8252 258.594 65.1282 258.854 65.5169C259.113 65.9057 259.252 66.3628 259.252 66.8303C259.252 67.4573 259.003 68.0586 258.56 68.5019C258.116 68.9452 257.515 69.1943 256.888 69.1943ZM256.888 65.2543C256.576 65.2543 256.272 65.3467 256.012 65.5199C255.753 65.6931 255.551 65.9392 255.432 66.2272C255.313 66.5152 255.281 66.8321 255.342 67.1378C255.403 67.4435 255.553 67.7243 255.774 67.9447C255.994 68.1651 256.275 68.3152 256.581 68.376C256.886 68.4368 257.203 68.4056 257.491 68.2863C257.779 68.1671 258.025 67.9651 258.198 67.7059C258.372 67.4467 258.464 67.142 258.464 66.8303C258.468 66.6207 258.431 66.4124 258.353 66.2175C258.276 66.0227 258.16 65.8452 258.014 65.6955C257.867 65.5458 257.692 65.4269 257.498 65.3457C257.305 65.2645 257.098 65.2227 256.888 65.2228V65.2543Z" fill="#263238"/>
<path d="M163.061 288.495L159.31 351.842C159.31 351.842 149.373 357.358 146.064 361.771C142.754 366.184 145.181 369.934 150.004 368.611C154.826 367.287 167.001 358.241 167.883 354.269C168.766 350.297 183.998 290.26 183.998 290.26L163.061 288.495Z" fill="white"/>
<path d="M148.144 369.272C147.489 369.315 146.834 369.193 146.238 368.918C145.642 368.642 145.124 368.223 144.732 367.696C143.652 366.12 144.031 363.804 145.733 361.534C148.845 357.389 157.474 352.409 158.908 351.598L162.651 288.471C162.659 288.365 162.707 288.267 162.785 288.195C162.825 288.161 162.871 288.135 162.921 288.118C162.971 288.102 163.024 288.096 163.077 288.101L184.045 289.866C184.101 289.872 184.156 289.89 184.204 289.919C184.253 289.947 184.296 289.986 184.329 290.031C184.364 290.077 184.387 290.129 184.398 290.185C184.409 290.241 184.407 290.299 184.392 290.354C184.242 290.961 169.152 350.431 168.285 354.348C167.348 358.564 154.85 367.704 150.122 368.989C149.479 369.175 148.813 369.27 148.144 369.272ZM163.415 288.896L159.68 351.834C159.679 351.9 159.66 351.965 159.625 352.022C159.591 352.079 159.542 352.125 159.483 352.157C159.381 352.212 149.586 357.673 146.363 361.983C144.89 363.946 144.519 365.923 145.378 367.224C146.237 368.524 147.876 368.8 149.917 368.209C154.826 366.869 166.701 357.823 167.513 354.159C168.325 350.494 182.107 296.13 183.517 290.591L163.415 288.896Z" fill="#263238"/>
<path d="M154.889 358.02C154.495 357.578 154.008 357.23 153.463 356.999C152.918 356.769 152.328 356.663 151.737 356.688C149.63 358.115 147.729 359.826 146.087 361.771C142.778 366.184 145.205 369.934 150.027 368.611C154.85 367.287 167.024 358.241 167.907 354.269C167.904 354.214 167.904 354.159 167.907 354.104C164.652 356.791 161.079 359.07 157.269 360.888C157.269 360.888 156.213 359.564 154.889 358.02Z" fill="#FFC107"/>
<path d="M148.144 369.272C147.489 369.315 146.834 369.193 146.238 368.918C145.642 368.642 145.124 368.223 144.732 367.696C143.652 366.12 144.031 363.804 145.733 361.534C147.39 359.551 149.319 357.81 151.461 356.365C151.526 356.318 151.603 356.294 151.682 356.294C152.336 356.265 152.988 356.382 153.592 356.635C154.196 356.889 154.736 357.273 155.173 357.76C156.166 358.918 157.033 359.95 157.411 360.4C161.076 358.616 164.515 356.402 167.655 353.804C167.717 353.751 167.795 353.718 167.877 353.711C167.959 353.704 168.041 353.723 168.112 353.765C168.184 353.806 168.241 353.871 168.273 353.947C168.306 354.024 168.313 354.109 168.293 354.19V354.348C167.355 358.564 154.858 367.704 150.13 368.989C149.484 369.175 148.816 369.27 148.144 369.272ZM151.824 357.074C149.785 358.46 147.948 360.119 146.363 362.007C144.89 363.969 144.519 365.947 145.378 367.247C146.237 368.547 147.868 368.823 149.917 368.232C154.33 367.027 164.4 359.564 166.954 355.427C164.01 357.685 160.841 359.634 157.498 361.243C157.42 361.28 157.332 361.29 157.247 361.272C157.163 361.253 157.088 361.207 157.033 361.14C157.033 361.14 155.929 359.816 154.606 358.272C154.253 357.892 153.825 357.589 153.349 357.382C152.872 357.176 152.359 357.071 151.84 357.074H151.824Z" fill="#263238"/>
<path d="M225.297 288.495L229.048 351.842C229.048 351.842 238.985 357.358 242.294 361.771C245.604 366.184 243.177 369.934 238.354 368.611C233.532 367.287 221.357 358.241 220.475 354.269C219.592 350.297 204.36 290.26 204.36 290.26L225.297 288.495Z" fill="white"/>
<path d="M240.198 369.272C239.529 369.27 238.863 369.175 238.22 368.989C233.492 367.704 220.995 358.564 220.057 354.348C219.19 350.408 204.1 290.961 203.95 290.354C203.935 290.299 203.933 290.241 203.944 290.185C203.955 290.129 203.978 290.077 204.013 290.031C204.046 289.985 204.088 289.946 204.137 289.918C204.186 289.889 204.24 289.871 204.297 289.866L225.266 288.101C225.318 288.096 225.371 288.101 225.421 288.118C225.471 288.134 225.518 288.16 225.557 288.195C225.635 288.267 225.683 288.365 225.691 288.471L229.434 351.598C230.86 352.386 239.497 357.389 242.609 361.534C244.312 363.804 244.69 366.113 243.61 367.696C243.218 368.223 242.7 368.642 242.104 368.918C241.508 369.193 240.853 369.315 240.198 369.272ZM204.825 290.614C206.227 296.13 219.994 350.431 220.829 354.182C221.664 357.933 233.516 366.893 238.425 368.232C240.466 368.792 242.168 368.421 242.964 367.247C243.76 366.073 243.453 363.969 241.979 362.007C238.764 357.752 228.961 352.236 228.859 352.181C228.8 352.149 228.749 352.103 228.714 352.046C228.678 351.99 228.657 351.925 228.654 351.858L224.927 288.92L204.825 290.614Z" fill="#263238"/>
<path d="M233.461 358.02C233.856 357.58 234.343 357.232 234.888 357.002C235.433 356.772 236.022 356.664 236.613 356.688C238.718 358.117 240.619 359.827 242.263 361.771C245.572 366.184 243.145 369.934 238.323 368.611C233.5 367.287 221.326 358.241 220.443 354.269C220.433 354.213 220.42 354.158 220.404 354.104C223.656 356.796 227.226 359.08 231.034 360.904C231.034 360.904 232.137 359.564 233.461 358.02Z" fill="#FFC107"/>
<path d="M240.198 369.272C239.529 369.27 238.863 369.175 238.22 368.989C233.492 367.704 220.995 358.564 220.057 354.348L220.017 354.19C220.001 354.108 220.01 354.023 220.044 353.947C220.078 353.871 220.135 353.807 220.207 353.765C220.277 353.723 220.359 353.704 220.441 353.711C220.523 353.718 220.601 353.751 220.664 353.804C223.804 356.402 227.243 358.616 230.908 360.4C231.278 359.95 232.153 358.918 233.146 357.76C233.583 357.273 234.123 356.889 234.726 356.635C235.33 356.382 235.982 356.265 236.636 356.294C236.713 356.293 236.788 356.318 236.849 356.365C238.996 357.809 240.927 359.549 242.586 361.534C244.288 363.804 244.666 366.113 243.587 367.696C243.196 368.219 242.682 368.637 242.091 368.912C241.5 369.187 240.849 369.311 240.198 369.272ZM221.428 355.443C224.044 359.635 234.036 367.035 238.449 368.232C240.49 368.792 242.192 368.421 242.988 367.247C243.784 366.073 243.476 363.969 242.003 362.007C240.417 360.118 238.576 358.458 236.534 357.074C236.016 357.061 235.501 357.161 235.026 357.368C234.551 357.575 234.127 357.883 233.784 358.272C232.468 359.848 231.365 361.14 231.365 361.14C231.308 361.206 231.231 361.252 231.145 361.271C231.06 361.289 230.971 361.279 230.892 361.243C227.55 359.633 224.379 357.69 221.428 355.443Z" fill="#263238"/>
<path d="M165.48 197.859C165.48 197.859 160.539 215.644 158.743 244.351C156.946 273.058 160.263 291.221 160.263 291.221C170.314 294.641 180.867 296.354 191.484 296.288C204.78 296.227 218.036 294.823 231.049 292.096C231.049 292.096 235.943 262.152 231.593 231.648C227.243 201.145 225.163 195.014 225.163 195.014H165.354L165.48 197.859Z" fill="#263238"/>
<path d="M191.177 296.706C180.611 296.701 170.117 294.963 160.114 291.56C160.052 291.534 159.997 291.493 159.954 291.441C159.911 291.389 159.882 291.327 159.869 291.261C159.869 291.079 156.568 272.695 158.341 244.296C160.066 216.716 164.755 198.994 165.078 197.804L164.96 195.046C164.957 194.994 164.965 194.942 164.982 194.893C165 194.845 165.027 194.8 165.062 194.762C165.1 194.723 165.145 194.691 165.195 194.67C165.245 194.648 165.299 194.637 165.354 194.636H225.132C225.215 194.636 225.296 194.662 225.363 194.71C225.431 194.758 225.482 194.826 225.51 194.904C225.597 195.156 227.637 201.452 231.948 231.609C236.258 261.766 231.459 291.875 231.412 292.175C231.4 292.252 231.365 292.324 231.312 292.382C231.258 292.439 231.189 292.48 231.113 292.498C218.076 295.216 204.801 296.625 191.484 296.706H191.177ZM160.61 290.898C170.461 294.21 180.784 295.905 191.177 295.918H191.484C204.663 295.836 217.802 294.456 230.711 291.796C231.176 288.77 235.289 260.276 231.207 231.727C227.385 204.935 225.305 196.913 224.903 195.432H165.803L165.906 197.843C165.913 197.882 165.913 197.922 165.906 197.961C165.858 198.143 160.957 216.085 159.184 244.343C157.466 270.97 160.248 288.739 160.61 290.898Z" fill="#263238"/>
<path d="M165.354 192.099C165.354 192.099 163.155 199.86 164.676 201.373C166.197 202.886 172.856 205.794 196.645 206.472C220.435 207.149 227.606 202.729 228.118 199.183C228.396 196.953 228.103 194.689 227.267 192.603L165.354 192.099Z" fill="#FFC107"/>
<path d="M201.366 206.937C199.868 206.937 198.3 206.937 196.638 206.866C171.532 206.149 165.732 202.981 164.408 201.657C162.769 200.018 164.747 192.808 164.984 191.988C165.007 191.906 165.057 191.835 165.125 191.783C165.194 191.732 165.277 191.705 165.362 191.705L227.283 192.209C227.358 192.21 227.432 192.233 227.495 192.275C227.558 192.317 227.607 192.376 227.637 192.445C228.506 194.597 228.808 196.936 228.512 199.238C228.236 201.113 225.439 206.937 201.366 206.937ZM165.653 192.493C164.865 195.44 163.999 200.144 164.952 201.098C165.906 202.051 171.138 205.353 196.653 206.078C218.717 206.708 227.188 202.926 227.724 199.128C227.974 197.056 227.729 194.955 227.007 192.997L165.653 192.493Z" fill="#263238"/>
<path d="M206.046 62.3543C206.046 62.3543 206.046 59.5806 200.916 57.2245C195.786 54.8683 189.695 54.5925 180.129 65.1045C170.563 75.6164 176.252 86.5853 175.283 91.1636C174.313 95.7419 161.642 102.07 161.146 112.361C160.65 122.652 174.589 128.996 187.339 128.121C200.089 127.246 198.284 125.213 204.935 125.631C211.586 126.048 218.93 126.324 221.428 123.968C223.926 121.612 225.447 114.678 223.366 107.333C221.286 99.9892 217.472 93.0312 216.503 86.9321C215.534 80.8329 217.291 69.6985 212.744 65.5457C208.197 61.393 206.046 62.3543 206.046 62.3543Z" fill="#263238"/>
<path d="M185.014 128.649C176.945 128.649 169.128 125.962 164.629 121.557C163.357 120.395 162.352 118.971 161.683 117.384C161.013 115.796 160.696 114.083 160.752 112.361C161.067 105.805 166.118 100.903 170.208 96.9554C172.572 94.6781 174.581 92.7081 174.936 91.0927C175.188 89.9028 174.936 88.1535 174.676 86.1362C173.935 80.7541 172.832 72.622 179.877 64.8602C189.9 53.8282 196.244 54.6162 201.153 56.8699C205.258 58.7532 206.22 60.9359 206.44 61.8815C207.346 61.787 209.506 62.0549 213.083 65.3093C216.385 68.3116 216.495 74.7023 216.59 80.3365C216.57 82.5381 216.693 84.7387 216.96 86.9242C217.504 90.3599 218.969 94.0871 220.522 98.0271C221.775 101.056 222.874 104.146 223.816 107.286C225.927 114.733 224.43 121.793 221.767 124.307C219.103 126.821 211.972 126.521 204.88 126.08C202.827 125.865 200.752 126.096 198.797 126.758C196.803 127.333 194.069 128.129 187.331 128.57C186.583 128.625 185.795 128.649 185.014 128.649ZM195.424 56.2946C191.579 56.2946 186.756 58.375 180.452 65.3882C173.652 72.882 174.692 80.4783 175.448 86.0259C175.732 88.1219 175.976 89.9659 175.7 91.2582C175.306 93.1021 173.195 95.1509 170.752 97.5622C166.812 101.408 161.871 106.23 161.571 112.44C161.414 115.592 162.643 118.491 165.212 121.021C169.94 125.647 178.813 128.381 187.339 127.821C193.998 127.388 196.677 126.608 198.639 126.041C200.682 125.356 202.847 125.115 204.99 125.331C211.594 125.741 218.835 125.993 221.192 123.755C223.548 121.517 225.021 114.591 223.02 107.523C222.129 104.371 220.924 101.313 219.75 98.3423C218.174 94.355 216.7 90.5884 216.141 87.0739C215.868 84.8519 215.742 82.6145 215.762 80.3759C215.668 74.8599 215.565 68.6899 212.508 65.9161C208.253 62.0392 206.243 62.7641 206.204 62.7641C206.148 62.7931 206.086 62.8083 206.023 62.8083C205.96 62.8083 205.897 62.7931 205.841 62.7641C205.79 62.727 205.747 62.6786 205.717 62.6226C205.687 62.5666 205.67 62.5045 205.668 62.441C205.668 62.3937 205.534 59.8564 200.767 57.6658C199.109 56.82 197.284 56.3517 195.424 56.2946Z" fill="#263238"/>
<path d="M187.174 114.906C187.174 114.906 171.414 116.994 167.852 121.541C164.29 126.088 165.575 140.863 165.575 140.863L171.256 170.602C171.256 170.602 163.037 188.552 164.495 193.761C165.953 198.97 182.414 201.893 200.546 201.476C218.678 201.058 228.26 198.552 228.678 192.516C229.095 186.48 221.428 164.353 221.428 164.353C221.428 164.353 232.602 129.114 224.454 120.225C220.025 115.387 201.917 114.922 201.917 114.922L187.174 114.906Z" fill="#FFC107"/>
<path d="M197.284 201.901C181.421 201.901 165.622 199.262 164.117 193.872C162.683 188.742 170.082 172.233 170.846 170.555L165.188 140.934C165.125 140.288 163.888 125.907 167.552 121.297C171.217 116.687 186.464 114.607 187.134 114.52H201.964C202.752 114.52 220.301 115.04 224.816 119.957C232.862 128.743 222.752 161.682 221.917 164.353C222.586 166.315 229.513 186.661 229.103 192.548C228.693 198.552 219.899 201.429 200.593 201.878C199.466 201.893 198.371 201.901 197.284 201.901ZM187.197 115.3C186.488 115.403 171.548 117.499 168.159 121.785C164.771 126.072 165.953 140.697 165.969 140.823L171.642 170.531C171.665 170.608 171.665 170.69 171.642 170.767C171.555 170.941 163.494 188.647 164.897 193.619C166.205 198.284 181.539 201.499 200.554 201.042C219.363 200.609 227.921 197.953 228.307 192.445C228.709 186.551 221.215 164.66 221.113 164.44C221.085 164.358 221.085 164.269 221.113 164.188C221.223 163.841 232.145 129.074 224.265 120.438C219.994 115.773 202.201 115.269 201.996 115.261L187.197 115.3Z" fill="#263238"/>
<path d="M218.063 117.168C218.063 117.168 225.581 118.239 228.796 120.848C232.011 123.456 233.705 128.822 234.17 134.803C234.635 140.784 235.391 152.754 235.391 154.133C235.391 155.512 239.686 167.939 236.621 178.214C233.555 188.49 222.665 167.182 222.665 165.33C222.665 163.478 221.436 159.657 221.436 159.657L222.602 142.841" fill="#FFC107"/>
<path d="M234.131 181.397C234.002 181.405 233.873 181.405 233.744 181.397C229.064 180.712 222.271 166.678 222.271 165.362C222.271 163.604 221.073 159.846 221.058 159.806C221.054 159.756 221.054 159.706 221.058 159.657L222.216 142.809C222.226 142.705 222.276 142.609 222.355 142.542C222.435 142.474 222.537 142.44 222.642 142.447C222.745 142.455 222.84 142.503 222.908 142.581C222.976 142.659 223.011 142.761 223.004 142.864C222.571 149.129 221.909 158.672 221.846 159.609C222.019 160.161 223.067 163.549 223.067 165.33C223.067 166.678 229.852 180.003 233.863 180.586C234.257 180.641 235.439 180.814 236.227 178.104C238.662 169.94 236.376 160.318 235.399 156.213C235.208 155.531 235.068 154.836 234.982 154.133C234.982 152.809 234.241 141.091 233.76 134.835C233.256 128.334 231.396 123.479 228.536 121.155C225.439 118.649 218.063 117.569 217.992 117.554C217.941 117.548 217.891 117.532 217.846 117.506C217.8 117.481 217.761 117.446 217.729 117.405C217.697 117.364 217.674 117.317 217.661 117.267C217.648 117.216 217.646 117.164 217.653 117.112C217.669 117.008 217.725 116.915 217.809 116.851C217.893 116.788 217.998 116.76 218.103 116.774C218.41 116.821 225.762 117.893 229.032 120.54C232.066 122.999 234.028 128.058 234.548 134.779C234.997 140.555 235.777 152.699 235.777 154.133C235.875 154.77 236.009 155.402 236.179 156.024C237.164 160.2 239.489 169.964 236.967 178.324C236.4 180.365 235.423 181.397 234.131 181.397Z" fill="#263238"/>
<path d="M187.962 102.29L187.859 109.571H204.856L204.746 102.393L187.962 102.29Z" fill="white"/>
<path d="M204.88 109.965H187.859C187.753 109.965 187.651 109.923 187.575 109.847C187.504 109.77 187.464 109.669 187.465 109.563L187.568 102.282C187.572 102.18 187.615 102.083 187.688 102.011C187.761 101.939 187.859 101.898 187.962 101.896L204.738 101.999C204.79 101.998 204.841 102.007 204.888 102.026C204.936 102.045 204.98 102.073 205.016 102.109C205.053 102.145 205.082 102.188 205.102 102.235C205.122 102.283 205.132 102.333 205.132 102.385L205.242 109.563C205.243 109.616 205.233 109.669 205.213 109.718C205.192 109.766 205.162 109.81 205.124 109.847C205.061 109.916 204.973 109.958 204.88 109.965ZM188.285 109.177H204.478L204.384 102.787L188.332 102.684L188.285 109.177Z" fill="#263238"/>
<path d="M206.117 106.506C203.567 107.926 200.706 108.695 197.788 108.744C189.821 108.862 186.756 105.489 186.472 106.656C186.189 107.822 184.573 114.78 184.573 116.049C184.573 117.317 189.104 119.989 196.283 120.17C204.163 120.351 206.629 118.594 207.685 117.948C208.741 117.302 208.528 116.892 208.111 114.567C208.032 113.779 206.858 106.088 206.117 106.506Z" fill="#FFC107"/>
<path d="M197.386 120.564H196.291C189.27 120.406 184.195 117.759 184.195 116.049C184.195 114.685 185.818 107.601 186.11 106.553C186.131 106.453 186.175 106.36 186.238 106.279C186.301 106.199 186.381 106.134 186.472 106.088C186.866 105.891 187.379 106.088 188.3 106.49C191.277 107.799 194.506 108.434 197.756 108.35C200.595 108.308 203.381 107.575 205.873 106.214C205.946 106.174 206.029 106.152 206.113 106.152C206.197 106.152 206.28 106.174 206.354 106.214C206.771 106.411 207.268 107.176 208.371 113.984C208.41 114.244 208.442 114.433 208.458 114.528L208.576 115.166C208.907 116.939 209.033 117.601 207.851 118.318L207.685 118.421C206.645 118.988 204.171 120.564 197.386 120.564ZM186.858 106.79C186.496 108.153 184.983 114.859 184.983 116.033C184.983 116.868 189.12 119.595 196.307 119.76C203.706 119.926 206.243 118.365 207.339 117.703L207.52 117.593C208.205 117.183 208.213 117.097 207.874 115.276L207.756 114.622L207.662 114.063C206.874 108.988 206.369 107.436 206.133 106.971C203.56 108.334 200.699 109.063 197.788 109.099C194.423 109.193 191.079 108.533 188.001 107.168C187.633 107.001 187.25 106.867 186.858 106.766V106.79Z" fill="#263238"/>
<path d="M203.304 71.3533C203.304 71.3533 201.137 75.5927 198.797 77.1293C196.456 78.6659 198.702 73.5203 198.702 73.5203C198.702 73.5203 197.441 78.0276 194.013 79.2018C190.586 80.3759 186.709 79.1151 185.448 79.9898C184.187 80.8644 182.469 83.9298 182.651 85.5058C182.832 87.0818 184.542 97.3258 185.629 100.202C186.717 103.078 189.955 105.978 196.086 106.608C198.358 106.843 200.649 106.414 202.683 105.373C204.716 104.333 206.404 102.725 207.543 100.746C209.08 98.1295 209.978 82.8896 210.073 80.9905C210.167 79.0914 207.638 78.2877 205.739 76.5698C203.84 74.852 203.304 71.3533 203.304 71.3533Z" fill="white"/>
<path d="M197.402 107.089C196.957 107.088 196.513 107.065 196.07 107.018C190.672 106.459 186.614 103.969 185.282 100.36C184.14 97.3257 182.438 86.8926 182.28 85.5609C182.083 83.8903 183.856 80.6911 185.243 79.6982C185.936 79.2017 187.111 79.249 188.592 79.3042C190.379 79.4717 192.182 79.3114 193.911 78.8314C195.905 78.1458 197.142 76.2152 197.788 74.852C197.969 74.3083 198.182 73.7882 198.371 73.3627C198.41 73.2712 198.482 73.1981 198.573 73.1585C198.664 73.1189 198.767 73.1158 198.86 73.1499C198.955 73.1824 199.035 73.2504 199.082 73.3399C199.129 73.4294 199.139 73.5334 199.112 73.6306C198.948 74.1463 198.754 74.6516 198.529 75.1435C198.268 75.7388 198.144 76.3851 198.166 77.0347C198.318 76.965 198.465 76.886 198.608 76.7983C200.83 75.3405 202.957 71.2193 202.981 71.1799C203.018 71.1058 203.078 71.0454 203.151 71.0072C203.225 70.969 203.309 70.955 203.391 70.9671C203.473 70.9808 203.55 71.0201 203.609 71.0795C203.669 71.1388 203.708 71.2153 203.722 71.2981C203.722 71.2981 204.265 74.6944 206.03 76.294C206.611 76.8004 207.227 77.2639 207.874 77.6809C209.253 78.6265 210.561 79.5169 210.491 81.0299C210.491 81.1954 209.608 98.0586 207.906 100.958C206.842 102.808 205.313 104.347 203.47 105.422C201.627 106.498 199.535 107.072 197.402 107.089ZM187.315 80.0607C186.762 80.0047 186.204 80.1 185.7 80.3365C184.55 81.1245 182.903 84.111 183.068 85.4742C183.257 87.1054 184.967 97.2942 186.023 100.084C187.268 103.409 191.058 105.71 196.157 106.23C198.355 106.462 200.574 106.05 202.542 105.044C204.51 104.038 206.144 102.482 207.244 100.564C208.623 98.2004 209.561 84.308 209.718 80.9905C209.766 79.9188 208.741 79.2175 207.449 78.335C206.772 77.8955 206.126 77.4083 205.518 76.8771C204.344 75.6486 203.526 74.1229 203.154 72.4643C202.366 73.8355 200.79 76.3255 199.025 77.4603C198.805 77.6021 198.127 78.0513 197.646 77.6415C197.492 77.4907 197.396 77.2893 197.378 77.0741C196.586 78.2187 195.465 79.0953 194.163 79.5879C192.346 80.101 190.449 80.2746 188.568 80.1001C188.119 80.0764 187.694 80.0607 187.315 80.0607Z" fill="#263238"/>
<path d="M182.942 86.6799C182.942 86.6799 180.688 84.0637 179.877 86.7745C179.065 89.4852 184.116 94.6545 184.116 94.6545L182.942 86.6799Z" fill="white"/>
<path d="M184.116 95.0247C184.01 95.0213 183.909 94.9792 183.832 94.9065C183.62 94.6859 178.632 89.5639 179.498 86.664C179.759 85.813 180.184 85.3166 180.775 85.1905C181.918 84.9462 183.139 86.2779 183.241 86.4355C183.288 86.4926 183.321 86.5602 183.336 86.6325L184.51 94.5598C184.523 94.6428 184.508 94.7277 184.469 94.8016C184.429 94.8756 184.366 94.9345 184.29 94.9695C184.238 95.0034 184.178 95.0225 184.116 95.0247ZM181.067 85.947H180.941C180.578 86.0258 180.373 86.4986 180.255 86.8768C179.751 88.5631 181.981 91.6048 183.541 93.4014L182.572 86.8532C182.183 86.3947 181.654 86.0763 181.067 85.947Z" fill="#263238"/>
<path d="M209.734 85.1591C209.734 85.1591 211.72 82.7241 212.618 85.6949C213.516 88.6657 209.285 92.6451 209.285 92.6451L209.734 85.1591Z" fill="white"/>
<path d="M209.285 93.0391C209.228 93.051 209.169 93.051 209.112 93.0391C209.042 93.0041 208.984 92.9498 208.945 92.8826C208.906 92.8155 208.887 92.7385 208.891 92.6608L209.34 85.1748C209.347 85.0921 209.377 85.013 209.427 84.9463C209.537 84.8202 210.491 83.6855 211.554 83.8904C212.201 84.0165 212.689 84.5996 212.996 85.624C213.958 88.776 209.734 92.8027 209.553 92.9682C209.475 93.0228 209.38 93.048 209.285 93.0391ZM210.12 85.3167L209.742 91.6207C210.869 90.3678 212.839 87.8146 212.24 85.8368C212.09 85.3403 211.822 84.7336 211.405 84.6469C210.987 84.5602 210.396 85.0409 210.12 85.3167Z" fill="#263238"/>
<path d="M196.921 94.883C196.001 94.8533 195.116 94.5178 194.407 93.9296C194.366 93.8959 194.331 93.8541 194.306 93.8066C194.281 93.7592 194.266 93.7071 194.261 93.6535C194.257 93.6 194.264 93.5462 194.281 93.4953C194.299 93.4445 194.326 93.3977 194.362 93.3579C194.398 93.3181 194.442 93.2861 194.491 93.2638C194.54 93.2415 194.593 93.2295 194.646 93.2284C194.7 93.2274 194.753 93.2373 194.803 93.2576C194.853 93.2779 194.898 93.3081 194.935 93.3464C195.489 93.8384 196.208 94.1022 196.948 94.0847C197.688 94.0671 198.394 93.7695 198.923 93.2519C198.959 93.2152 199.002 93.186 199.049 93.1661C199.096 93.1462 199.147 93.136 199.198 93.136C199.25 93.136 199.301 93.1462 199.348 93.1661C199.395 93.186 199.438 93.2152 199.474 93.2519C199.547 93.3269 199.588 93.4272 199.588 93.5316C199.588 93.636 199.547 93.7364 199.474 93.8114C198.79 94.4798 197.877 94.8629 196.921 94.883Z" fill="#263238"/>
<path d="M190.467 89.1226C189.594 89.1041 188.745 88.8301 188.025 88.3346C187.942 88.2708 187.889 88.1769 187.875 88.0735C187.862 87.9701 187.89 87.8656 187.954 87.783C188.018 87.7011 188.111 87.6472 188.214 87.6325C188.316 87.6178 188.421 87.6435 188.505 87.7042C189.132 88.142 189.888 88.3546 190.651 88.3074C191.414 88.2602 192.138 87.9559 192.705 87.4442C192.787 87.3784 192.892 87.3473 192.996 87.3577C193.101 87.368 193.197 87.4188 193.265 87.4993C193.329 87.581 193.359 87.6848 193.347 87.7881C193.335 87.8915 193.283 87.9859 193.202 88.0509C192.448 88.7231 191.478 89.1033 190.467 89.1226Z" fill="#263238"/>
<path d="M202.642 89.1228C201.771 89.105 200.924 88.831 200.207 88.3348C200.124 88.2721 200.068 88.1788 200.054 88.0753C200.039 87.9719 200.066 87.8668 200.128 87.7832C200.192 87.7013 200.285 87.6474 200.388 87.6327C200.491 87.618 200.596 87.6437 200.68 87.7044C201.305 88.1426 202.059 88.3576 202.821 88.3148C203.583 88.2719 204.308 87.9736 204.88 87.468C204.92 87.4347 204.965 87.4096 205.015 87.3943C205.064 87.379 205.116 87.3737 205.167 87.3789C205.219 87.384 205.269 87.3994 205.314 87.4242C205.36 87.449 205.399 87.4827 205.432 87.5232C205.497 87.6038 205.528 87.707 205.517 87.8103C205.507 87.9136 205.456 88.0086 205.376 88.0748C204.618 88.7372 203.649 89.1086 202.642 89.1228Z" fill="#263238"/>
<path d="M193.848 97.3337C193.848 97.3337 195.928 99.5007 200.073 97.3337C200.073 97.3337 199.435 100.013 197.189 100.486C194.636 101.029 193.848 97.3337 193.848 97.3337Z" fill="#263238"/>
<path d="M186.819 85.758C186.674 85.757 186.532 85.7161 186.409 85.6398C186.234 85.5307 186.109 85.3574 186.061 85.157C186.012 84.9567 186.044 84.7453 186.149 84.5681C186.22 84.442 188.025 81.5816 192.934 82.5824C193.037 82.6031 193.136 82.6439 193.223 82.7026C193.311 82.7614 193.386 82.8368 193.445 82.9246C193.503 83.0124 193.544 83.1109 193.565 83.2144C193.585 83.3179 193.585 83.4245 193.564 83.528C193.544 83.6314 193.503 83.7298 193.444 83.8175C193.385 83.9052 193.31 83.9805 193.222 84.039C193.134 84.0975 193.036 84.1382 192.932 84.1587C192.829 84.1792 192.722 84.1791 192.619 84.1584C188.852 83.3704 187.544 85.3404 187.489 85.427C187.413 85.5333 187.313 85.6192 187.196 85.6769C187.079 85.7347 186.949 85.7626 186.819 85.758Z" fill="#263238"/>
<path d="M206.22 85.7659C206.086 85.7662 205.954 85.7323 205.837 85.6675C205.72 85.6027 205.621 85.5091 205.55 85.3955C205.479 85.2931 204.171 83.3625 200.42 84.1269C200.211 84.1687 199.994 84.1257 199.817 84.0075C199.639 83.8893 199.516 83.7054 199.474 83.4965C199.433 83.2875 199.475 83.0704 199.594 82.8931C199.712 82.7158 199.896 82.5927 200.105 82.5509C205.006 81.5501 206.818 84.4105 206.889 84.5366C206.997 84.7154 207.029 84.9294 206.978 85.1317C206.928 85.3341 206.8 85.5083 206.621 85.6162C206.504 85.7023 206.365 85.7541 206.22 85.7659Z" fill="#263238"/>
<path d="M237.464 174.148C237.464 174.148 235.967 185.18 234.367 185.574C232.767 185.968 226.779 182.8 221.01 176.709C215.242 170.618 209.797 157.907 209.797 157.907L203.706 153.313C203.706 153.313 208.623 146.907 209.474 144.771C210.163 143.219 211.024 141.749 212.043 140.39C212.043 140.39 213.532 145.307 214.706 149.578C215.124 151.368 215.696 153.119 216.416 154.81L234.997 169.743" fill="#FFC107"/>
<path d="M234.036 185.968C231.672 185.968 225.849 182.351 220.719 176.937C215.203 171.154 209.986 159.318 209.466 158.12L203.462 153.589C203.419 153.559 203.384 153.521 203.358 153.476C203.332 153.431 203.316 153.381 203.312 153.329C203.303 153.278 203.305 153.226 203.317 153.176C203.329 153.126 203.352 153.079 203.383 153.037C203.438 152.974 208.276 146.647 209.104 144.582C209.799 142.996 210.677 141.497 211.72 140.114C211.764 140.058 211.822 140.014 211.889 139.988C211.955 139.962 212.028 139.955 212.098 139.967C212.169 139.98 212.234 140.011 212.288 140.057C212.343 140.104 212.383 140.165 212.405 140.232C212.405 140.288 213.918 145.205 215.085 149.436C215.506 151.168 216.054 152.867 216.724 154.519L235.242 169.42C235.323 169.486 235.376 169.582 235.387 169.687C235.399 169.791 235.37 169.896 235.305 169.979C235.273 170.02 235.233 170.054 235.187 170.078C235.142 170.103 235.092 170.119 235.041 170.124C234.989 170.129 234.937 170.124 234.888 170.108C234.838 170.093 234.793 170.068 234.753 170.035L216.172 155.102C216.132 155.07 216.1 155.03 216.077 154.984C216.077 154.944 215.502 153.936 214.328 149.665C213.438 146.434 212.358 142.801 211.893 141.257C211.083 142.394 210.397 143.615 209.844 144.897C209.056 146.812 205.274 151.887 204.257 153.227L210.034 157.576C210.088 157.618 210.131 157.672 210.16 157.734C210.215 157.86 215.676 170.452 221.294 176.425C227.275 182.729 233.004 185.511 234.265 185.18C234.997 184.983 236.282 179.9 237.07 174.077C237.085 173.973 237.141 173.879 237.225 173.816C237.309 173.753 237.415 173.725 237.519 173.738C237.621 173.754 237.713 173.809 237.775 173.891C237.836 173.974 237.863 174.077 237.85 174.179C237.495 176.827 236.187 185.479 234.469 185.936C234.327 185.969 234.181 185.98 234.036 185.968Z" fill="#263238"/>
<path d="M216.416 154.795C215.696 153.103 215.124 151.353 214.706 149.562C213.532 145.291 212.043 140.374 212.043 140.374C211.024 141.733 210.163 143.203 209.474 144.756C208.623 146.891 203.706 153.297 203.706 153.297L209.797 157.892C211.482 161.715 213.386 165.438 215.502 169.042C218.373 166.394 221.032 163.525 223.453 160.46L216.416 154.795Z" fill="white"/>
<path d="M215.502 169.42H215.439C215.382 169.409 215.329 169.387 215.281 169.355C215.234 169.322 215.193 169.28 215.163 169.231C213.06 165.64 211.16 161.933 209.474 158.128L203.469 153.597C203.427 153.567 203.392 153.528 203.366 153.483C203.34 153.438 203.324 153.388 203.32 153.337C203.311 153.286 203.313 153.234 203.325 153.184C203.337 153.134 203.36 153.086 203.391 153.045C203.446 152.982 208.284 146.655 209.112 144.59C209.807 143.004 210.685 141.504 211.728 140.122C211.772 140.066 211.83 140.022 211.896 139.996C211.963 139.97 212.036 139.963 212.106 139.975C212.176 139.987 212.242 140.018 212.296 140.065C212.35 140.112 212.391 140.172 212.413 140.24C212.413 140.295 213.926 145.212 215.092 149.444C215.514 151.176 216.062 152.875 216.732 154.527L223.697 160.145C223.737 160.177 223.77 160.216 223.795 160.261C223.819 160.305 223.834 160.354 223.839 160.405C223.847 160.457 223.843 160.51 223.828 160.56C223.813 160.611 223.787 160.657 223.753 160.697C221.321 163.791 218.649 166.689 215.762 169.365C215.684 169.411 215.593 169.431 215.502 169.42ZM204.257 153.211L210.034 157.56C210.088 157.602 210.131 157.656 210.16 157.718C211.772 161.383 213.588 164.956 215.597 168.419C218.207 165.963 220.645 163.33 222.894 160.539L216.172 155.118C216.132 155.086 216.1 155.045 216.077 154.999C216.077 154.96 215.502 153.951 214.328 149.68C213.438 146.45 212.358 142.817 211.893 141.272C211.083 142.41 210.397 143.631 209.844 144.913C209.08 146.812 205.274 151.887 204.257 153.226V153.211Z" fill="#263238"/>
<path d="M175.235 117.562C169.957 117.689 164.852 119.479 160.65 122.676C153.833 127.979 158.9 164.377 159.468 169.491C160.035 174.605 159.239 181.185 165.772 183.486C168.136 184.274 202.713 155.827 202.713 155.827C202.713 155.827 205.818 153.313 207.299 153.132C208.781 152.951 210.963 149.909 211.665 148.948C212.946 146.716 213.944 144.334 214.635 141.856C214.895 140.28 213.414 140.634 212.973 141.249C212.531 141.863 211.058 145.693 211.058 145.693C211.058 145.693 212.973 139.239 212.886 136.71C212.799 134.18 211.925 134.787 211.925 134.787C211.925 134.787 211.838 132.084 211.231 131.824C210.625 131.564 210.01 131.998 209.742 132.691C209.474 133.385 208 135.843 208 135.843C208 135.843 209.576 131.832 209.309 130.958C209.041 130.083 207.567 131.044 207.126 131.919C206.048 133.489 204.852 134.975 203.548 136.363C203.028 136.891 201.893 137.766 201.893 137.766C201.893 137.766 203.115 135.496 203.722 134.102C204.328 132.707 203.028 131.564 202.24 132.88C201.452 134.196 200.325 136.631 199.971 137.238C199.616 137.845 196.921 141.517 196.661 143.258C196.401 145 196.047 147.986 195.96 148.932C195.873 149.877 195.172 150.327 194.738 151.296C194.305 152.265 173.62 162.328 173.62 162.328L173.36 145.142" fill="#FFC107"/>
<path d="M165.787 183.88C165.735 183.888 165.682 183.888 165.63 183.88C159.917 181.862 159.578 176.685 159.286 172.115C159.223 171.224 159.168 170.381 159.081 169.562C159.034 169.16 158.963 168.561 158.869 167.804C155.559 140.626 156.063 125.765 160.405 122.384C164.672 119.116 169.87 117.297 175.243 117.191C175.295 117.191 175.347 117.202 175.395 117.222C175.443 117.242 175.486 117.272 175.522 117.31C175.558 117.347 175.586 117.392 175.605 117.44C175.623 117.489 175.632 117.541 175.629 117.593C175.625 117.697 175.581 117.795 175.506 117.867C175.431 117.939 175.331 117.979 175.228 117.979C170.042 118.119 165.03 119.877 160.894 123.007C156.843 126.159 156.426 141.202 159.649 167.71C159.743 168.498 159.814 169.073 159.862 169.475C159.956 170.31 160.011 171.161 160.066 172.06C160.366 176.598 160.665 181.295 165.898 183.131C168.073 183.131 189.404 166.252 202.421 155.551C202.752 155.283 205.668 152.958 207.22 152.777C208.064 152.675 209.419 151.351 211.247 148.837L211.31 148.758C212.549 146.582 213.52 144.265 214.202 141.856C214.202 141.722 214.281 141.288 214.084 141.209C213.929 141.184 213.77 141.201 213.624 141.259C213.478 141.318 213.351 141.415 213.256 141.54C212.552 142.957 211.926 144.412 211.381 145.898C211.344 145.993 211.272 146.07 211.18 146.114C211.087 146.158 210.982 146.165 210.885 146.134C210.789 146.1 210.71 146.03 210.664 145.939C210.618 145.848 210.61 145.743 210.64 145.646C210.64 145.583 212.539 139.224 212.453 136.781C212.405 135.355 212.106 135.205 212.098 135.205C212.038 135.239 211.97 135.258 211.901 135.258C211.832 135.258 211.764 135.239 211.704 135.205C211.642 135.172 211.59 135.123 211.553 135.064C211.515 135.004 211.494 134.936 211.491 134.866C211.525 133.965 211.364 133.067 211.019 132.234C210.955 132.207 210.887 132.193 210.818 132.193C210.749 132.193 210.68 132.207 210.617 132.234C210.357 132.37 210.162 132.602 210.073 132.88C209.537 133.979 208.945 135.049 208.3 136.087C208.277 136.134 208.245 136.176 208.207 136.21C208.168 136.244 208.122 136.271 208.073 136.287C208.024 136.304 207.973 136.311 207.921 136.308C207.869 136.305 207.819 136.291 207.772 136.269C207.678 136.223 207.606 136.141 207.572 136.042C207.555 135.993 207.548 135.941 207.551 135.89C207.555 135.838 207.568 135.787 207.591 135.741C208.324 133.865 209.033 131.564 208.891 131.107C208.891 131.044 208.804 131.036 208.678 131.107C208.155 131.307 207.717 131.683 207.441 132.171C206.344 133.781 205.124 135.304 203.793 136.726C203.25 137.23 202.682 137.706 202.09 138.152C202.021 138.207 201.935 138.237 201.846 138.237C201.758 138.237 201.671 138.207 201.602 138.152C201.534 138.093 201.487 138.013 201.47 137.924C201.453 137.835 201.466 137.744 201.507 137.663C201.507 137.663 202.729 135.394 203.328 134.031C203.596 133.4 203.375 132.935 203.139 132.809C202.902 132.683 202.634 133.014 202.54 133.164C202.051 133.952 201.405 135.284 200.964 136.229C200.68 136.812 200.436 137.293 200.31 137.522C200.184 137.75 200.057 137.916 199.821 138.27C198.978 139.515 197.236 142.108 197.039 143.408C196.771 145.212 196.425 148.136 196.346 149.05C196.263 149.633 196.014 150.18 195.629 150.626C195.419 150.904 195.237 151.203 195.085 151.516C194.644 152.494 180.042 159.664 173.809 162.698C173.751 162.729 173.686 162.745 173.62 162.745C173.554 162.745 173.489 162.729 173.431 162.698C173.376 162.662 173.33 162.612 173.297 162.555C173.264 162.498 173.245 162.433 173.242 162.367L172.982 145.212C172.981 145.161 172.99 145.109 173.009 145.061C173.028 145.013 173.056 144.969 173.092 144.932C173.127 144.894 173.17 144.864 173.218 144.844C173.265 144.823 173.316 144.812 173.368 144.811C173.42 144.806 173.473 144.813 173.523 144.83C173.573 144.848 173.618 144.876 173.656 144.912C173.694 144.949 173.724 144.993 173.744 145.042C173.763 145.091 173.772 145.144 173.77 145.197L174.022 161.745C181.792 157.962 193.722 151.973 194.415 151.17C194.581 150.824 194.781 150.497 195.014 150.193C195.316 149.851 195.513 149.43 195.582 148.979C195.676 147.955 196.031 145 196.283 143.29C196.504 141.816 198.253 139.224 199.191 137.829C199.411 137.498 199.577 137.254 199.648 137.128C199.719 137.001 200.002 136.442 200.286 135.883C200.79 134.866 201.413 133.605 201.917 132.731C201.98 132.578 202.072 132.44 202.189 132.325C202.306 132.209 202.445 132.118 202.598 132.057C202.751 131.996 202.915 131.966 203.079 131.969C203.244 131.973 203.406 132.009 203.556 132.076C203.912 132.312 204.166 132.674 204.267 133.089C204.368 133.504 204.308 133.942 204.1 134.314C203.848 134.89 203.493 135.615 203.162 136.261L203.288 136.143C204.562 134.78 205.734 133.326 206.795 131.793C206.998 131.377 207.303 131.02 207.682 130.755C208.061 130.491 208.502 130.327 208.962 130.28C209.136 130.286 209.303 130.35 209.437 130.461C209.571 130.572 209.664 130.725 209.703 130.894C209.768 131.315 209.744 131.745 209.632 132.155C209.807 131.877 210.063 131.657 210.364 131.525C210.527 131.451 210.703 131.413 210.881 131.413C211.059 131.413 211.235 131.451 211.397 131.525C212.043 131.801 212.248 133.298 212.319 134.409C212.384 134.423 212.447 134.444 212.508 134.472C213.004 134.724 213.249 135.449 213.296 136.757C213.252 138.204 213.052 139.641 212.697 141.044C212.897 140.784 213.172 140.591 213.484 140.491C213.797 140.391 214.132 140.389 214.446 140.484C214.738 140.603 215.234 140.957 215.037 141.982C214.341 144.513 213.322 146.945 212.004 149.215L211.94 149.302C210.561 151.193 208.788 153.4 207.362 153.565C206.243 153.699 203.816 155.488 202.973 156.174C194.943 162.722 168.979 183.872 165.787 183.88Z" fill="#263238"/>
<path d="M162.982 167.552C162.878 167.574 162.769 167.554 162.679 167.496C162.59 167.437 162.527 167.346 162.505 167.241C162.483 167.137 162.504 167.028 162.562 166.938C162.621 166.849 162.712 166.786 162.817 166.764L164.7 165.905C164.795 165.862 164.904 165.857 165.002 165.893C165.1 165.93 165.18 166.003 165.224 166.099C165.268 166.194 165.272 166.302 165.236 166.401C165.2 166.499 165.126 166.579 165.031 166.623L163.14 167.481C163.094 167.517 163.04 167.542 162.982 167.552Z" fill="#263238"/>
<path d="M166.788 165.811C166.713 165.811 166.64 165.79 166.577 165.749C166.514 165.709 166.464 165.651 166.433 165.582C166.411 165.535 166.398 165.484 166.395 165.432C166.392 165.38 166.4 165.328 166.418 165.279C166.435 165.23 166.462 165.185 166.498 165.146C166.533 165.108 166.575 165.076 166.623 165.054L173.455 161.902C173.501 161.88 173.551 161.867 173.603 161.865C173.655 161.862 173.706 161.87 173.755 161.887C173.803 161.905 173.847 161.932 173.885 161.967C173.923 162.002 173.953 162.045 173.975 162.092C174.016 162.188 174.018 162.297 173.981 162.395C173.945 162.493 173.872 162.573 173.778 162.62L166.954 165.772C166.902 165.796 166.845 165.809 166.788 165.811Z" fill="#263238"/>
<path d="M207.291 153.132C208.781 152.959 210.955 149.909 211.657 148.948C212.938 146.716 213.936 144.334 214.628 141.856C214.888 140.28 213.406 140.634 212.965 141.249C212.524 141.864 211.05 145.693 211.05 145.693C211.05 145.693 212.965 139.24 212.878 136.71C212.791 134.181 211.917 134.787 211.917 134.787C211.917 134.787 211.83 132.084 211.223 131.824C210.617 131.564 210.002 131.998 209.734 132.691C209.466 133.385 207.993 135.843 207.993 135.843C207.993 135.843 209.569 131.832 209.301 130.958C209.033 130.083 207.559 131.044 207.118 131.919C206.041 133.49 204.845 134.975 203.54 136.363C203.02 136.891 201.886 137.766 201.886 137.766C201.886 137.766 203.107 135.497 203.714 134.102C204.32 132.707 203.02 131.564 202.232 132.88C201.444 134.196 200.317 136.631 199.963 137.238C199.608 137.845 196.913 141.517 196.653 143.258C196.393 145 196.039 147.986 195.952 148.932C195.865 149.878 195.164 150.327 194.731 151.296C194.455 151.895 186.346 156.024 180.263 159.026C180.996 162.879 182.979 166.383 185.905 168.994C194.573 162.304 202.705 155.819 202.705 155.819C202.705 155.819 205.81 153.313 207.291 153.132Z" fill="white"/>
<path d="M185.905 169.42C185.812 169.42 185.723 169.386 185.653 169.325C182.666 166.651 180.638 163.072 179.877 159.136C179.858 159.051 179.868 158.961 179.907 158.882C179.946 158.804 180.01 158.74 180.09 158.703C192.39 152.596 194.195 151.367 194.392 151.123C194.557 150.777 194.758 150.45 194.991 150.145C195.293 149.804 195.49 149.383 195.558 148.932C195.653 147.908 196.007 144.953 196.259 143.243C196.48 141.769 198.229 139.176 199.167 137.782C199.388 137.451 199.553 137.206 199.624 137.08C199.695 136.954 199.979 136.403 200.254 135.835C200.759 134.819 201.389 133.558 201.893 132.683C201.956 132.531 202.049 132.393 202.166 132.277C202.283 132.162 202.422 132.071 202.575 132.01C202.727 131.949 202.891 131.919 203.056 131.922C203.22 131.926 203.382 131.962 203.533 132.029C203.888 132.265 204.142 132.627 204.243 133.042C204.344 133.457 204.284 133.894 204.076 134.267C203.824 134.842 203.469 135.567 203.139 136.214L203.265 136.095C204.538 134.733 205.71 133.279 206.771 131.746C206.975 131.331 207.281 130.975 207.66 130.71C208.039 130.445 208.479 130.281 208.938 130.233C209.113 130.239 209.281 130.304 209.415 130.417C209.549 130.53 209.642 130.684 209.679 130.855C209.745 131.273 209.72 131.7 209.608 132.108C209.784 131.829 210.039 131.61 210.341 131.478C210.503 131.404 210.679 131.366 210.857 131.366C211.035 131.366 211.211 131.404 211.373 131.478C212.019 131.754 212.224 133.251 212.295 134.362C212.36 134.376 212.424 134.397 212.484 134.425C212.981 134.677 213.225 135.402 213.272 136.71C213.229 138.156 213.028 139.594 212.673 140.997C212.874 140.737 213.148 140.544 213.461 140.444C213.773 140.344 214.109 140.342 214.423 140.437C214.714 140.555 215.211 140.91 215.014 141.934C214.318 144.466 213.298 146.897 211.98 149.168L211.917 149.255C210.538 151.146 208.765 153.353 207.339 153.518C206.22 153.652 203.793 155.441 202.949 156.126C202.871 156.189 194.707 162.69 186.149 169.31C186.083 169.374 185.997 169.413 185.905 169.42ZM180.712 159.27C181.455 162.817 183.274 166.047 185.921 168.522C194.384 161.973 202.374 155.606 202.469 155.543C202.792 155.275 205.707 152.951 207.26 152.769C208.103 152.667 209.458 151.343 211.286 148.829L211.349 148.751C212.588 146.575 213.559 144.257 214.241 141.848C214.241 141.714 214.32 141.28 214.123 141.202C213.968 141.176 213.809 141.193 213.663 141.251C213.517 141.31 213.39 141.407 213.296 141.533C212.591 142.95 211.965 144.404 211.42 145.89C211.383 145.985 211.311 146.063 211.219 146.107C211.127 146.151 211.021 146.158 210.924 146.127C210.828 146.093 210.749 146.023 210.703 145.932C210.658 145.84 210.649 145.735 210.68 145.638C210.68 145.575 212.579 139.216 212.492 136.773C212.445 135.347 212.145 135.197 212.137 135.197C212.078 135.232 212.01 135.25 211.94 135.25C211.871 135.25 211.803 135.232 211.743 135.197C211.681 135.164 211.629 135.115 211.592 135.056C211.555 134.997 211.533 134.928 211.531 134.858C211.565 133.957 211.404 133.059 211.058 132.226C210.994 132.199 210.926 132.185 210.857 132.185C210.788 132.185 210.72 132.199 210.656 132.226C210.397 132.362 210.201 132.594 210.112 132.872C209.576 133.971 208.984 135.041 208.339 136.08C208.293 136.174 208.212 136.246 208.113 136.28C208.014 136.314 207.905 136.307 207.811 136.261C207.717 136.215 207.645 136.133 207.611 136.034C207.577 135.935 207.584 135.827 207.63 135.733C208.363 133.865 209.072 131.556 208.93 131.099C208.93 131.036 208.844 131.029 208.718 131.099C208.194 131.3 207.757 131.676 207.48 132.163C206.386 133.775 205.166 135.298 203.832 136.718C203.29 137.223 202.722 137.699 202.13 138.144C202.062 138.202 201.975 138.234 201.886 138.234C201.796 138.234 201.71 138.202 201.641 138.144C201.573 138.085 201.526 138.005 201.509 137.916C201.492 137.828 201.505 137.736 201.547 137.656C201.547 137.656 202.768 135.386 203.367 134.015C203.635 133.393 203.414 132.928 203.178 132.802C202.942 132.675 202.674 133.006 202.579 133.156C202.09 133.944 201.444 135.276 201.003 136.229C200.711 136.805 200.475 137.285 200.349 137.514C200.223 137.742 200.097 137.908 199.86 138.262C199.017 139.507 197.276 142.1 197.079 143.4C196.811 145.205 196.464 148.128 196.385 149.042C196.303 149.626 196.054 150.173 195.668 150.618C195.458 150.897 195.276 151.195 195.125 151.509C194.967 151.737 194.715 152.297 180.712 159.247V159.27Z" fill="#263238"/>
<path d="M208.032 135.859C208.032 135.859 205.242 140.421 204.092 141.84L208.032 135.859Z" fill="white"/>
<path d="M204.092 142.234C204.017 142.235 203.943 142.214 203.879 142.174C203.815 142.135 203.764 142.077 203.732 142.009C203.699 141.941 203.687 141.865 203.696 141.791C203.706 141.716 203.736 141.646 203.785 141.588C204.888 140.209 207.614 135.702 207.638 135.654C207.665 135.61 207.7 135.571 207.742 135.54C207.784 135.509 207.831 135.486 207.882 135.474C207.932 135.461 207.985 135.459 208.036 135.467C208.088 135.475 208.137 135.493 208.182 135.52C208.27 135.576 208.334 135.663 208.359 135.765C208.384 135.866 208.368 135.974 208.316 136.064C208.197 136.253 205.534 140.666 204.376 142.084C204.341 142.127 204.298 142.163 204.249 142.189C204.201 142.214 204.147 142.23 204.092 142.234Z" fill="#263238"/>
<path d="M211.917 134.811C211.917 134.811 209.301 141.745 207.134 144.385L211.917 134.811Z" fill="white"/>
<path d="M207.134 144.779C207.042 144.779 206.954 144.749 206.882 144.693C206.841 144.66 206.807 144.619 206.782 144.573C206.757 144.527 206.742 144.476 206.737 144.424C206.731 144.372 206.737 144.32 206.752 144.27C206.768 144.22 206.793 144.173 206.826 144.133C208.93 141.572 211.554 134.74 211.554 134.677C211.593 134.58 211.668 134.501 211.764 134.459C211.86 134.416 211.968 134.412 212.067 134.449C212.115 134.467 212.16 134.495 212.198 134.531C212.236 134.566 212.267 134.609 212.288 134.657C212.309 134.705 212.321 134.756 212.322 134.808C212.323 134.86 212.314 134.912 212.295 134.961C212.185 135.244 209.632 141.982 207.441 144.645C207.403 144.689 207.356 144.724 207.303 144.747C207.249 144.771 207.192 144.781 207.134 144.779Z" fill="#263238"/>
<path d="M209.608 149.121C209.548 149.119 209.489 149.106 209.435 149.082C209.388 149.059 209.346 149.027 209.312 148.989C209.278 148.95 209.251 148.904 209.234 148.855C209.218 148.806 209.211 148.754 209.214 148.703C209.217 148.651 209.231 148.6 209.253 148.554L210.719 145.544C210.765 145.45 210.846 145.378 210.946 145.344C211.045 145.31 211.153 145.316 211.247 145.362C211.341 145.408 211.413 145.49 211.447 145.589C211.481 145.688 211.474 145.796 211.428 145.89L209.939 148.932C209.905 148.989 209.856 149.037 209.798 149.07C209.74 149.103 209.675 149.121 209.608 149.121Z" fill="#263238"/>
</svg>
