<svg width="500" height="500" viewBox="0 0 500 500" fill="none" xmlns="http://www.w3.org/2000/svg">
<path d="M500 382.4H0V382.65H500V382.4Z" fill="#EBEBEB"/>
<path d="M449.9 398.49H416.78V398.74H449.9V398.49Z" fill="#EBEBEB"/>
<path d="M331.22 401.21H322.53V401.46H331.22V401.21Z" fill="#EBEBEB"/>
<path d="M415.78 389.21H396.59V389.46H415.78V389.21Z" fill="#EBEBEB"/>
<path d="M95.65 390.89H52.46V391.14H95.65V390.89Z" fill="#EBEBEB"/>
<path d="M110.89 390.89H104.56V391.14H110.89V390.89Z" fill="#EBEBEB"/>
<path d="M225.15 395.11H131.47V395.36H225.15V395.11Z" fill="#EBEBEB"/>
<path d="M237 337.8H43.91C42.3973 337.797 40.9475 337.195 39.8788 336.124C38.8102 335.053 38.21 333.603 38.21 332.09V60.66C38.2231 59.156 38.8292 57.718 39.8964 56.6582C40.9637 55.5985 42.4059 55.0026 43.91 55H237C238.514 55 239.967 55.6016 241.038 56.6724C242.108 57.7433 242.71 59.1956 242.71 60.71V332.09C242.71 333.604 242.108 335.057 241.038 336.128C239.967 337.198 238.514 337.8 237 337.8ZM43.91 55.2C42.4636 55.2026 41.0774 55.7791 40.0556 56.8027C39.0338 57.8264 38.46 59.2136 38.46 60.66V332.09C38.46 333.536 39.0338 334.924 40.0556 335.947C41.0774 336.971 42.4636 337.547 43.91 337.55H237C238.447 337.547 239.834 336.971 240.858 335.948C241.881 334.924 242.457 333.537 242.46 332.09V60.66C242.457 59.2127 241.881 57.8255 240.858 56.8021C239.834 55.7787 238.447 55.2026 237 55.2H43.91Z" fill="#EBEBEB"/>
<path d="M453.31 337.8H260.21C258.696 337.797 257.246 337.195 256.175 336.125C255.105 335.054 254.503 333.604 254.5 332.09V60.66C254.516 59.1551 255.124 57.7171 256.193 56.6576C257.262 55.5981 258.705 55.0025 260.21 55H453.31C454.812 55.0052 456.252 55.6022 457.317 56.6617C458.382 57.7212 458.987 59.1578 459 60.66V332.09C459 333.601 458.401 335.05 457.335 336.121C456.268 337.191 454.821 337.795 453.31 337.8ZM260.21 55.2C258.763 55.2026 257.375 55.7787 256.352 56.8021C255.329 57.8255 254.753 59.2127 254.75 60.66V332.09C254.753 333.537 255.329 334.924 256.352 335.948C257.375 336.971 258.763 337.547 260.21 337.55H453.31C454.757 337.547 456.145 336.971 457.168 335.948C458.191 334.924 458.767 333.537 458.77 332.09V60.66C458.767 59.2127 458.191 57.8255 457.168 56.8021C456.145 55.7787 454.757 55.2026 453.31 55.2H260.21Z" fill="#EBEBEB"/>
<path d="M442.07 156.48H265.78V379.71H442.07V156.48Z" fill="#F0F0F0"/>
<path d="M435.84 164.62H272.01V212.36H435.84V164.62Z" fill="#E0E0E0"/>
<path d="M281.32 172.34H272.01V212.35H281.32V172.34Z" fill="#EBEBEB"/>
<path d="M326.32 172.34H317.01V212.35H326.32V172.34Z" fill="#EBEBEB"/>
<path d="M379.156 172.064L369.939 173.646L376.741 213.256L385.958 211.673L379.156 172.064Z" fill="#EBEBEB"/>
<path d="M292.85 177.62H283.54V212.36H292.85V177.62Z" fill="#EBEBEB"/>
<path d="M314.25 177.62H304.94V212.36H314.25V177.62Z" fill="#EBEBEB"/>
<path d="M368.24 177.62H358.93V212.36H368.24V177.62Z" fill="#EBEBEB"/>
<path d="M338.559 176.403L329.471 178.423L337.008 212.336L346.096 210.316L338.559 176.403Z" fill="#EBEBEB"/>
<path d="M300.9 170.36H296.25V212.35H300.9V170.36Z" fill="#EBEBEB"/>
<path d="M356.25 170.36H351.6V212.35H356.25V170.36Z" fill="#EBEBEB"/>
<path d="M272.01 267.65H435.84V219.91L272.01 219.91V267.65Z" fill="#E0E0E0"/>
<path d="M426.53 267.65H435.84V227.64H426.53V267.65Z" fill="#EBEBEB"/>
<path d="M381.53 267.65H390.84V227.64H381.53V267.65Z" fill="#EBEBEB"/>
<path d="M323.66 266.057L332.835 267.638L339.631 228.21L330.457 226.628L323.66 266.057Z" fill="#EBEBEB"/>
<path d="M415 267.65H424.31V232.91H415V267.65Z" fill="#EBEBEB"/>
<path d="M393.61 267.65H402.92V232.91H393.61V267.65Z" fill="#EBEBEB"/>
<path d="M339.61 267.65H348.92V232.91H339.61V267.65Z" fill="#EBEBEB"/>
<path d="M361.065 263.574L370.189 265.622L377.832 231.577L368.708 229.528L361.065 263.574Z" fill="#EBEBEB"/>
<path d="M406.96 267.65H411.61V225.66H406.96V267.65Z" fill="#EBEBEB"/>
<path d="M351.6 267.65H356.25V225.66H351.6V267.65Z" fill="#EBEBEB"/>
<path d="M281.32 227.64H272.01V267.65H281.32V227.64Z" fill="#EBEBEB"/>
<path d="M292.85 232.91H283.54V267.65H292.85V232.91Z" fill="#EBEBEB"/>
<path d="M314.25 232.91H304.94V267.65H314.25V232.91Z" fill="#EBEBEB"/>
<path d="M300.9 225.65H296.25V267.64H300.9V225.65Z" fill="#EBEBEB"/>
<path d="M435.84 275.21H272.01V322.95H435.84V275.21Z" fill="#E0E0E0"/>
<path d="M375.35 282.93H366.04V322.94H375.35V282.93Z" fill="#EBEBEB"/>
<path d="M426.447 281.919L417.272 283.5L424.069 322.929L433.243 321.347L426.447 281.919Z" fill="#EBEBEB"/>
<path d="M341.89 288.21H332.58V322.95H341.89V288.21Z" fill="#EBEBEB"/>
<path d="M363.28 288.21H353.97V322.95H363.28V288.21Z" fill="#EBEBEB"/>
<path d="M417.27 288.21H407.96V322.95H417.27V288.21Z" fill="#EBEBEB"/>
<path d="M387.594 286.992L378.505 289.012L386.042 322.925L395.131 320.905L387.594 286.992Z" fill="#EBEBEB"/>
<path d="M349.93 280.95H345.28V322.94H349.93V280.95Z" fill="#EBEBEB"/>
<path d="M405.28 280.95H400.63V322.94H405.28V280.95Z" fill="#EBEBEB"/>
<path d="M319.383 281.916L310.208 283.498L317.005 322.926L326.18 321.345L319.383 281.916Z" fill="#EBEBEB"/>
<path d="M310.2 288.21H300.89V322.95H310.2V288.21Z" fill="#EBEBEB"/>
<path d="M280.524 287.001L271.436 289.021L278.972 322.934L288.061 320.914L280.524 287.001Z" fill="#EBEBEB"/>
<path d="M298.21 280.95H293.56V322.94H298.21V280.95Z" fill="#EBEBEB"/>
<path d="M113.16 212.59H140.69V173.63H113.16V212.59Z" fill="#E0E0E0"/>
<path d="M114.95 210.75H138.89V175.45H114.95V210.75Z" fill="#EBEBEB"/>
<path d="M78.5701 199.08H106.1V160.12H78.5701V199.08Z" fill="#E0E0E0"/>
<path d="M80.3598 197.24H104.3V161.94H80.3598V197.24Z" fill="#EBEBEB"/>
<path d="M113.16 141.44V166.23H148.24V141.44H113.16Z" fill="#E0E0E0"/>
<path d="M114.81 143.06V164.62H146.59V143.06H114.81Z" fill="#EBEBEB"/>
<path d="M67.1299 127.34V154.87H106.09V127.34H67.1299Z" fill="#E0E0E0"/>
<path d="M68.9702 129.13V153.07H104.27V129.13H68.9702Z" fill="#EBEBEB"/>
<path d="M134.71 102.52H113.15V133.03H134.71V102.52Z" fill="#E0E0E0"/>
<path d="M133.31 103.95H114.56V131.59H133.31V103.95Z" fill="#EBEBEB"/>
<path d="M250 427.56C357.082 427.56 443.89 422.492 443.89 416.24C443.89 409.988 357.082 404.92 250 404.92C142.917 404.92 56.1099 409.988 56.1099 416.24C56.1099 422.492 142.917 427.56 250 427.56Z" fill="#F5F5F5"/>
<path d="M409.48 380.19C409.48 380.19 401.8 365.19 410.58 350.33C419.36 335.47 421.9 332 416.3 329C410.7 326 408.14 340.86 408.14 340.86C408.14 340.86 403.42 330.62 407.32 319.86C411.22 309.1 413.66 291.66 408.32 289.79C402.98 287.92 407.32 311.58 402.68 319.65C402.68 319.65 398.81 310.65 398.17 302.05C397.53 293.45 398.53 279.68 394.33 276.15C390.13 272.62 387.43 275.07 391.56 294.08C394.04 305.41 395.413 316.954 395.66 328.55C395.66 328.55 386.54 303.61 380.42 302.88C374.3 302.15 374.31 310.23 379.55 317.23C384.79 324.23 394.89 336.79 396.55 343.23C396.55 343.23 386.55 324.46 377.55 330.23C368.55 336 385.39 347.32 392.9 351.41C400.41 355.5 405.61 381.19 405.61 381.19L409.48 380.19Z" fill="#FFC107"/>
<path opacity="0.6" d="M409.48 380.19C409.48 380.19 401.8 365.19 410.58 350.33C419.36 335.47 421.9 332 416.3 329C410.7 326 408.14 340.86 408.14 340.86C408.14 340.86 403.42 330.62 407.32 319.86C411.22 309.1 413.66 291.66 408.32 289.79C402.98 287.92 407.32 311.58 402.68 319.65C402.68 319.65 398.81 310.65 398.17 302.05C397.53 293.45 398.53 279.68 394.33 276.15C390.13 272.62 387.43 275.07 391.56 294.08C394.04 305.41 395.413 316.954 395.66 328.55C395.66 328.55 386.54 303.61 380.42 302.88C374.3 302.15 374.31 310.23 379.55 317.23C384.79 324.23 394.89 336.79 396.55 343.23C396.55 343.23 386.55 324.46 377.55 330.23C368.55 336 385.39 347.32 392.9 351.41C400.41 355.5 405.61 381.19 405.61 381.19L409.48 380.19Z" fill="white"/>
<path d="M403.41 386.36C403.41 386.36 410.9 371.22 401.92 356.51C392.94 341.8 390.35 338.35 395.92 335.24C401.49 332.13 404.23 347 404.23 347C404.23 347 408.81 336.69 404.77 326C400.73 315.31 398.06 297.9 403.35 295.95C408.64 294 404.66 317.73 409.35 325.73C409.35 325.73 413.11 316.73 413.63 308.08C414.15 299.43 412.97 285.71 417.13 282.13C421.29 278.55 424 280.95 420.13 300.02C417.805 311.379 416.586 322.936 416.49 334.53C416.49 334.53 425.28 309.47 431.39 308.67C437.5 307.87 437.6 315.93 432.45 323.01C427.3 330.09 417.37 342.76 415.8 349.24C415.8 349.24 425.56 330.34 434.64 335.97C443.72 341.6 427.03 353.17 419.58 357.36C412.13 361.55 407.26 387.3 407.26 387.3L403.41 386.36Z" fill="#FFC107"/>
<path opacity="0.7" d="M403.41 386.36C403.41 386.36 410.9 371.22 401.92 356.51C392.94 341.8 390.35 338.35 395.92 335.24C401.49 332.13 404.23 347 404.23 347C404.23 347 408.81 336.69 404.77 326C400.73 315.31 398.06 297.9 403.35 295.95C408.64 294 404.66 317.73 409.35 325.73C409.35 325.73 413.11 316.73 413.63 308.08C414.15 299.43 412.97 285.71 417.13 282.13C421.29 278.55 424 280.95 420.13 300.02C417.805 311.379 416.586 322.936 416.49 334.53C416.49 334.53 425.28 309.47 431.39 308.67C437.5 307.87 437.6 315.93 432.45 323.01C427.3 330.09 417.37 342.76 415.8 349.24C415.8 349.24 425.56 330.34 434.64 335.97C443.72 341.6 427.03 353.17 419.58 357.36C412.13 361.55 407.26 387.3 407.26 387.3L403.41 386.36Z" fill="white"/>
<path d="M437.93 375.57H376.11L381.11 415.25H432.93L437.93 375.57Z" fill="#FFC107"/>
<path d="M256.95 393.49H69.4502V415.24H256.95V393.49Z" fill="#FFC107"/>
<path opacity="0.4" d="M256.95 393.49H69.4502V415.24H256.95V393.49Z" fill="white"/>
<path opacity="0.4" d="M256.94 393.49H147.81V415.24H256.94V393.49Z" fill="white"/>
<path d="M344 393.49H156.5V415.24H344V393.49Z" fill="#FFC107"/>
<path opacity="0.4" d="M344 393.49H156.5V415.24H344V393.49Z" fill="white"/>
<path opacity="0.4" d="M344 393.49H234.87V415.24H344V393.49Z" fill="white"/>
<path d="M262.36 348H70.64C65.8683 348 62 351.868 62 356.64V390.36C62 395.132 65.8683 399 70.64 399H262.36C267.132 399 271 395.132 271 390.36V356.64C271 351.868 267.132 348 262.36 348Z" fill="#FFC107"/>
<path opacity="0.6" d="M262.36 348H150.64C145.868 348 142 351.868 142 356.64V390.36C142 395.132 145.868 399 150.64 399H262.36C267.132 399 271 395.132 271 390.36V356.64C271 351.868 267.132 348 262.36 348Z" fill="white"/>
<path opacity="0.6" d="M262.36 348H70.64C65.8683 348 62 351.868 62 356.64V390.36C62 395.132 65.8683 399 70.64 399H262.36C267.132 399 271 395.132 271 390.36V356.64C271 351.868 267.132 348 262.36 348Z" fill="white"/>
<path d="M346.36 348H154.64C149.868 348 146 351.868 146 356.64V390.36C146 395.132 149.868 399 154.64 399H346.36C351.132 399 355 395.132 355 390.36V356.64C355 351.868 351.132 348 346.36 348Z" fill="#FFC107"/>
<path opacity="0.6" d="M346.36 348H234.64C229.868 348 226 351.868 226 356.64V390.36C226 395.132 229.868 399 234.64 399H346.36C351.132 399 355 395.132 355 390.36V356.64C355 351.868 351.132 348 346.36 348Z" fill="white"/>
<path opacity="0.6" d="M346.36 348H154.64C149.868 348 146 351.868 146 356.64V390.36C146 395.132 149.868 399 154.64 399H346.36C351.132 399 355 395.132 355 390.36V356.64C355 351.868 351.132 348 346.36 348Z" fill="white"/>
<path d="M189.65 349.18H66.6501L47.9201 252.4C47.4413 249.919 47.5166 247.363 48.1407 244.914C48.7648 242.466 49.9223 240.185 51.5303 238.236C53.1384 236.287 55.1573 234.717 57.4426 233.639C59.728 232.561 62.2233 232.001 64.7501 232H152.81C156.792 232.002 160.648 233.389 163.719 235.923C166.79 238.457 168.883 241.981 169.64 245.89L189.65 349.18Z" fill="#FFC107"/>
<path d="M101.59 349.18H66.6601L47.9201 252.4C47.4413 249.919 47.5166 247.363 48.1407 244.914C48.7648 242.466 49.9223 240.185 51.5303 238.236C53.1384 236.287 55.1573 234.717 57.4426 233.639C59.728 232.561 62.2233 232.001 64.7501 232C68.7328 232.001 72.5911 233.388 75.6635 235.922C78.7359 238.456 80.8312 241.98 81.5901 245.89L101.59 349.18Z" fill="#FFC107"/>
<g opacity="0.6">
<path d="M189.65 349.18H66.6501L47.9201 252.4C47.4413 249.919 47.5166 247.363 48.1407 244.914C48.7648 242.466 49.9223 240.185 51.5303 238.236C53.1384 236.287 55.1573 234.717 57.4426 233.639C59.728 232.561 62.2233 232.001 64.7501 232H152.81C156.792 232.002 160.648 233.389 163.719 235.923C166.79 238.457 168.883 241.981 169.64 245.89L189.65 349.18Z" fill="white"/>
<path d="M101.59 349.18H66.6601L47.9201 252.4C47.4413 249.919 47.5166 247.363 48.1407 244.914C48.7648 242.466 49.9223 240.185 51.5303 238.236C53.1384 236.287 55.1573 234.717 57.4426 233.639C59.728 232.561 62.2233 232.001 64.7501 232C68.7328 232.001 72.5911 233.388 75.6635 235.922C78.7359 238.456 80.8312 241.98 81.5901 245.89L101.59 349.18Z" fill="white"/>
</g>
<path opacity="0.6" d="M189.65 349H101.59L81.59 245.79C80.8266 241.891 78.727 238.38 75.653 235.863C72.5789 233.346 68.7231 231.979 64.75 232H152.81C156.783 231.982 160.637 233.351 163.71 235.87C166.782 238.389 168.879 241.901 169.64 245.8L189.65 349Z" fill="white"/>
<path d="M153.86 248.37C162 250.17 161.12 276.85 167.42 284C171.97 289.17 189.5 290.5 193.17 293.83C196.84 297.16 193.17 303.66 193.17 303.66C193.17 303.66 162.93 302.98 155.46 299.57C147.99 296.16 153.86 248.37 153.86 248.37Z" fill="#FFC107"/>
<path opacity="0.1" d="M153.86 248.37C162 250.17 161.12 276.85 167.42 284C171.97 289.17 189.5 290.5 193.17 293.83C196.84 297.16 193.17 303.66 193.17 303.66C193.17 303.66 162.93 302.98 155.46 299.57C147.99 296.16 153.86 248.37 153.86 248.37Z" fill="black"/>
<path d="M210.43 324.45C210.33 324.62 210.22 324.69 210.1 324.67C206.62 324.04 197.28 329.15 185.92 335.05L182.73 336.69L181.64 337.24C175.91 340.17 169.82 343.13 163.8 345.55C156.71 348.42 149.72 350.55 143.57 351.01C142.73 351.08 141.92 351.11 141.12 351.11C113.49 351.11 122.49 305.52 122.49 305.52L155.49 302.99L159.38 309.7L161.49 313.33L166.25 312.05C168.64 311.41 172.2 310.58 176.25 309.71L177.25 309.5C178.62 309.21 180.05 308.92 181.51 308.63C192.28 306.45 204.64 304.34 209.22 304.31C212.48 304.29 211.91 322.28 210.43 324.45Z" fill="#E4897B"/>
<path d="M176.93 308L183.33 339.72C183.33 339.72 161.33 357.63 142.33 350.64C123.33 343.65 129.33 311.38 129.33 311.38L154.33 303.72L161.17 311.88L176.93 308Z" fill="#FFC107"/>
<path opacity="0.6" d="M183.33 339.67C182.959 339.871 182.604 340.102 182.27 340.36C178.025 343.288 173.535 345.844 168.85 348C161.48 351 152.26 353.59 143.58 350.89C143.16 350.76 142.75 350.68 142.34 350.53C123.34 343.53 129.34 311.3 129.34 311.3L154.34 303.66L159.34 309.66L161.13 311.8L176 308.18L176.93 307.95L177.24 309.5L180.04 323.38L182.73 336.69L183.33 339.67Z" fill="white"/>
<path d="M175.83 307.33L182.5 341.67L186.5 338.51L181.17 306.67L175.83 307.33Z" fill="#FFC107"/>
<path opacity="0.4" d="M186.5 338.51L182.5 341.67L182.27 340.48L181.64 337.24L178.93 323.28L176.29 309.71L176 308.18L175.83 307.33L181.17 306.67L181.5 308.63L184 323.57L185.92 335.05L186.5 338.51Z" fill="white"/>
<path opacity="0.2" d="M210.43 324.45C210.33 324.62 210.22 324.69 210.1 324.67C206.62 324.04 197.28 329.15 185.92 335.05L186.5 338.51L182.5 341.67L182.27 340.36C178.025 343.288 173.535 345.844 168.85 348L163.85 345.43L156.55 341.61L159.55 314.33L163.88 320.33C163.88 320.33 173.98 322.78 178.98 323.26L180.09 323.37C181.46 323.48 182.8 323.56 184.09 323.57C184.97 323.57 185.8 323.57 186.59 323.5C195.1 322.9 204.4 322.58 210.43 324.45Z" fill="black"/>
<path d="M279.86 342.86L279.55 349.47H278.78C277.78 349.53 275.96 349.62 273.45 349.74C259.28 350.39 224.15 351.63 209.17 348.63L140.33 350L155.46 323.5L250.09 338.23L279.22 342.76L279.86 342.86Z" fill="#E4897B"/>
<path d="M291.23 335C291.11 337.58 291.01 339.91 290.91 342.06C290.77 345 290.66 347.62 290.54 350.12C290.34 354.47 286.77 351.58 279.05 351.05C278.86 351.05 278.79 350.42 278.78 349.52C278.78 347.59 279.06 344.33 279.22 342.77C279.22 342.22 279.31 341.88 279.31 341.88C280.254 341.003 281.148 340.075 281.99 339.1C284.137 336.797 285.782 334.073 286.82 331.1C288.36 325.67 291.5 328.88 291.23 335Z" fill="#263238"/>
<path d="M174.25 325.5L166.5 352.57L151.26 351.11C151.26 351.11 111.81 366.17 122.26 306.71L153.5 301L162.13 321.75L174.25 325.5Z" fill="#FFC107"/>
<path opacity="0.6" d="M174.25 325.5L166.5 352.57L151.26 351.11C151.26 351.11 111.81 366.17 122.26 306.71L153.5 301L162.13 321.75L174.25 325.5Z" fill="white"/>
<path d="M172.58 324.02L163.83 353H169L176.67 325.5L172.58 324.02Z" fill="#FFC107"/>
<path opacity="0.4" d="M172.58 324.02L163.83 353H169L176.67 325.5L172.58 324.02Z" fill="white"/>
<path opacity="0.2" d="M290.91 342.05C290.77 344.99 290.66 347.61 290.54 350.11C290.34 354.46 286.77 351.57 279.05 351.04C278.86 351.04 278.79 350.41 278.78 349.51C277.78 349.57 275.96 349.66 273.45 349.78C266.15 345.67 255.93 340.89 250.09 338.23L279.22 342.76C279.22 342.21 279.31 341.87 279.31 341.87C280.253 340.993 281.148 340.065 281.99 339.09L290.91 342.05Z" fill="black"/>
<path d="M209.21 304.31C208.01 304.31 208.83 324.44 210.1 324.67C215.47 325.67 288.74 347.26 288.74 347.26L290.88 340.85C290.88 340.85 221.22 304.25 209.21 304.31Z" fill="#E4897B"/>
<path d="M287.87 348.5C287.17 348.25 290.62 339.74 290.62 339.74C290.62 339.74 297.84 336.2 300.79 331.41C303.74 326.62 305.89 330.57 303.96 336.41C302.03 342.25 300.55 346.65 299.18 350.78C297.81 354.91 295.15 351.11 287.87 348.5Z" fill="#263238"/>
<path d="M158.5 307.67L161.17 311.83C161.17 311.83 132.5 346 125.67 348C125.67 348 121.81 344.76 121.91 337.05C122.01 329.34 158.5 307.67 158.5 307.67Z" fill="#FFC107"/>
<path opacity="0.1" d="M158.5 307.67L161.17 311.83C161.17 311.83 132.5 346 125.67 348C125.67 348 121.81 344.76 121.91 337.05C122.01 329.34 158.5 307.67 158.5 307.67Z" fill="black"/>
<path d="M148.91 210.75C150.468 211.853 151.726 213.326 152.571 215.037C153.416 216.748 153.822 218.643 153.75 220.55C153.5 227.13 152.14 237.32 153.75 241.03C155.36 244.74 149.59 245.77 149.59 245.77C149.921 244.76 149.921 243.67 149.59 242.66C149.59 242.66 149.59 244.38 147.29 245C144.99 245.62 126.62 246.08 122.49 242.66C118.36 239.24 126.99 211.66 131.74 210C136.49 208.34 148.91 210.75 148.91 210.75Z" fill="#263238"/>
<path d="M153.26 224.11C153.26 228.11 153.13 236.69 155 240.03C156.87 243.37 154.13 244.77 154.13 244.77" stroke="#263238" stroke-width="0.5" stroke-linecap="round" stroke-linejoin="round"/>
<path d="M155.45 297.85L160.67 309.67L122.75 344.67C114.17 340.92 120.87 280.52 113.61 258.67C113.26 257.67 112.9 256.52 112.51 255.39C112.387 255.022 112.34 254.633 112.371 254.246C112.402 253.859 112.511 253.482 112.691 253.139C112.871 252.795 113.119 252.491 113.42 252.246C113.72 252 114.067 251.818 114.44 251.71C117.993 250.702 121.598 249.89 125.24 249.28C130.137 248.411 135.09 247.89 140.06 247.72C146.49 247.72 153.86 248.39 153.86 248.39C153.86 248.39 154.86 248.64 155.57 255.45C156.18 261.82 156.77 274.6 155.45 297.85Z" fill="#FFC107"/>
<path d="M126.76 250.47C126.76 250.47 129.21 253.95 137.34 254.99C137.34 254.99 141.34 252.34 139.66 249.12C139.66 249.12 137.9 248.57 137.52 245.77C137.342 243.795 137.598 241.805 138.27 239.94C138.36 239.64 138.47 239.32 138.58 239L128.3 232.57C128.3 232.57 131.92 245.6 126.76 250.47Z" fill="#E4897B"/>
<path opacity="0.2" d="M130.61 236.3C130.61 236.3 131.16 243.65 137.52 245.77C137.341 243.795 137.597 241.805 138.27 239.94C134.52 238 130.61 236.3 130.61 236.3Z" fill="black"/>
<path d="M122.75 251.39C122.75 251.39 123.68 245.49 126.04 245.17C126.04 245.17 131.45 249.54 139.29 245.77C139.29 245.77 140.73 245.56 140.76 248.28C140.79 251 144.12 250.48 141.76 255.28C139.4 260.08 128.69 261.52 122.75 251.39Z" fill="#FFC107"/>
<path opacity="0.1" d="M122.75 251.39C122.75 251.39 123.68 245.49 126.04 245.17C126.04 245.17 131.45 249.54 139.29 245.77C139.29 245.77 140.73 245.56 140.76 248.28C140.79 251 144.12 250.48 141.76 255.28C139.4 260.08 128.69 261.52 122.75 251.39Z" fill="black"/>
<path d="M141.12 212.22C149.52 213.65 151.46 218.61 150.6 227.38C149.52 238.38 145.81 245.61 135.7 241.5C122 235.93 127.17 209.84 141.12 212.22Z" fill="#E4897B"/>
<path d="M145.25 226C145.709 227.369 146.33 228.679 147.1 229.9C146.794 230.204 146.41 230.419 145.99 230.519C145.57 230.62 145.131 230.603 144.72 230.47L145.25 226Z" fill="#DE5753"/>
<path d="M140.22 224.41C140.12 225.11 139.66 225.61 139.22 225.55C138.78 225.49 138.47 224.86 138.57 224.17C138.67 223.48 139.13 222.97 139.57 223.04C140.01 223.11 140.32 223.72 140.22 224.41Z" fill="#263238"/>
<path d="M139.37 223L140.97 222.63C140.97 222.63 140 223.83 139.37 223Z" fill="#263238"/>
<path d="M148.86 225.53C148.76 226.23 148.3 226.73 147.86 226.67C147.42 226.61 147.1 225.98 147.2 225.29C147.3 224.6 147.76 224.09 148.2 224.16C148.64 224.23 149 224.84 148.86 225.53Z" fill="#263238"/>
<path d="M148 224.16L149.59 223.79C149.59 223.79 148.67 225 148 224.16Z" fill="#263238"/>
<path d="M141.13 218.6C140.48 218.405 139.794 218.363 139.124 218.476C138.455 218.588 137.821 218.853 137.27 219.25" stroke="#263238" stroke-width="0.72468" stroke-linecap="round" stroke-linejoin="round"/>
<path d="M147.3 219.29C147.899 219.244 148.5 219.334 149.059 219.552C149.618 219.77 150.121 220.111 150.53 220.55" stroke="#263238" stroke-width="0.72468" stroke-linecap="round" stroke-linejoin="round"/>
<path d="M129.52 224.81C129.52 224.81 134.63 218.58 134.94 213.15C134.94 213.15 152.76 209.15 150.69 226.23C150.69 226.23 154.88 211.5 140.49 208.7C126.1 205.9 122.56 227 129 234.61C129 234.61 126.35 228.72 129.52 224.81Z" fill="#263238"/>
<path d="M130.59 226.82C130.662 225.842 130.348 224.875 129.713 224.127C129.079 223.378 128.177 222.909 127.2 222.82C124.55 222.66 122.39 227.82 128.65 230.19C129.55 230.48 130.23 229.66 130.59 226.82Z" fill="#E4897B"/>
<path d="M148.91 215.63C148.91 215.63 152.91 211 149.6 207.13C146.29 203.26 132.31 202.5 127.6 206.63C122.89 210.76 123.39 213 123.39 213C121.251 217.652 120.345 222.777 120.76 227.88C121.64 235.75 118.6 240.63 120.62 243.13C122.64 245.63 124.62 245.77 124.62 245.77C124.098 243.926 124.098 241.974 124.62 240.13C125.54 237.63 124.62 239.38 124.62 239.38C124.62 239.38 125.69 245.88 126.8 246.63C128.016 247.181 129.319 247.52 130.65 247.63C129.331 244.545 128.778 241.185 129.04 237.84C129.67 232.96 132.29 227.96 131.67 222.21C131.378 218.588 132.373 214.98 134.48 212.02C134.48 212.02 144.45 210.88 148.91 215.63Z" fill="#263238"/>
<path d="M148.91 214.13C149.948 213.762 150.831 213.054 151.415 212.121C152 211.188 152.252 210.084 152.13 208.99C151.75 204.99 144.31 202.57 140.13 203.25" stroke="#263238" stroke-width="0.5" stroke-linecap="round" stroke-linejoin="round"/>
<path d="M124.58 212.5C124.58 212.5 119.42 219.86 119.9 228.27C120.38 236.68 117.5 239.27 118.38 241.88" stroke="#263238" stroke-width="0.5" stroke-linecap="round" stroke-linejoin="round"/>
<path d="M138.27 231.5C138.27 231.5 138.58 233.83 143.27 234.01" stroke="#263238" stroke-width="0.5" stroke-linecap="round" stroke-linejoin="round"/>
<path d="M167.42 296.18C167.42 296.18 173.17 297.33 174.25 297.67C177.507 299.372 180.595 301.381 183.47 303.67C184.83 305.01 176 307.18 174.25 306.67C172.5 306.16 169.34 302.42 169.34 302.42L163 301.42L167.42 296.18Z" fill="#E4897B"/>
<path d="M114.44 251.69C114.44 251.69 109.67 253.33 108.67 267.33C107.67 281.33 109.86 304.33 119.67 310.67C129.48 317.01 165.03 303.67 165.03 303.67C165.03 303.67 166.58 296.41 165.03 294.83C158.61 288.28 136.34 294.25 128.56 290.62C120.78 286.99 124.56 258.72 114.44 251.69Z" fill="#FFC107"/>
<path opacity="0.1" d="M114.44 251.69C114.44 251.69 109.67 253.33 108.67 267.33C107.67 281.33 109.86 304.33 119.67 310.67C129.48 317.01 165.03 303.67 165.03 303.67C165.03 303.67 166.58 296.41 165.03 294.83C158.61 288.28 136.34 294.25 128.56 290.62C120.78 286.99 124.56 258.72 114.44 251.69Z" fill="black"/>
<path d="M165 294.83L163.83 304.09L168.83 304.31L171 296.18L165 294.83Z" fill="#FFC107"/>
<path opacity="0.2" d="M165 294.83L163.83 304.09L168.83 304.31L171 296.18L165 294.83Z" fill="black"/>
<path d="M225 305V307.94C225 308.69 224.11 309 223.37 309H164.66C163.91 309 163 308.69 163 307.94V305H225Z" fill="#263238"/>
<path opacity="0.4" d="M225 305V307.94C225 308.69 224.11 309 223.37 309H164.66C163.91 309 163 308.69 163 307.94V305H225Z" fill="white"/>
<path opacity="0.2" d="M225 305V307.94C225 308.69 224.11 309 223.37 309H184.65C183.89 309 183 308.69 183 307.94V305H225Z" fill="black"/>
<path d="M234.82 274.5L227.82 306.2C227.694 306.709 227.403 307.162 226.992 307.487C226.582 307.813 226.074 307.993 225.55 308H187.39C187.151 307.995 186.916 307.935 186.705 307.824C186.493 307.713 186.31 307.554 186.17 307.36C186.03 307.166 185.938 306.942 185.9 306.706C185.861 306.47 185.879 306.228 185.95 306L192.95 274.54C193.096 274.067 193.398 273.657 193.806 273.377C194.215 273.097 194.706 272.965 195.2 273H233.38C234.41 273 235.05 273.46 234.82 274.5Z" fill="#263238"/>
<path opacity="0.4" d="M234.82 274.5L227.82 306.2C227.694 306.709 227.403 307.162 226.992 307.487C226.582 307.813 226.074 307.993 225.55 308H188.69C188.451 307.995 188.216 307.934 188.004 307.823C187.792 307.712 187.609 307.554 187.468 307.36C187.328 307.166 187.234 306.943 187.195 306.707C187.155 306.471 187.171 306.229 187.24 306L194.24 274.54C194.386 274.065 194.69 273.654 195.1 273.374C195.511 273.094 196.005 272.962 196.5 273H233.38C234.41 273 235.05 273.46 234.82 274.5Z" fill="white"/>
<path opacity="0.2" d="M216 290.61C216 293.32 213.09 295.53 211 295.53C208.91 295.53 207.6 293.32 208.21 290.61C208.82 287.9 210.94 285.78 213.03 285.7C212.42 288.41 213.72 290.61 215.84 290.61H216Z" fill="black"/>
<path d="M158.33 153H117.77C116.286 152.965 114.848 153.516 113.768 154.535C112.687 155.553 112.052 156.956 112 158.44V180.44C112.047 181.936 112.676 183.355 113.754 184.393C114.832 185.432 116.273 186.009 117.77 186H135.17L138.26 193.84L141.35 186H158.35C159.836 186.005 161.265 185.425 162.327 184.384C163.388 183.343 163.996 181.926 164.02 180.44V158.44C164.006 157.709 163.847 156.987 163.553 156.317C163.259 155.647 162.835 155.042 162.306 154.537C161.778 154.031 161.154 153.635 160.472 153.371C159.789 153.108 159.061 152.981 158.33 153Z" fill="#FFC107"/>
<path opacity="0.6" d="M158.33 153H117.77C116.286 152.965 114.848 153.516 113.768 154.535C112.687 155.553 112.052 156.956 112 158.44V180.44C112.047 181.936 112.676 183.355 113.754 184.393C114.832 185.432 116.273 186.009 117.77 186H135.17L138.26 193.84L141.35 186H158.35C159.836 186.005 161.265 185.425 162.327 184.384C163.388 183.343 163.996 181.926 164.02 180.44V158.44C164.006 157.709 163.847 156.987 163.553 156.317C163.259 155.647 162.835 155.042 162.306 154.537C161.778 154.031 161.154 153.635 160.472 153.371C159.789 153.108 159.061 152.981 158.33 153Z" fill="white"/>
<path opacity="0.2" d="M119 175.5L130.63 167L134.25 168L139.13 165L146.91 167.5L156 159.5V177H119V175.5Z" fill="black"/>
<path d="M119 162V177H156V163L144.16 172L139.13 167.79L127.83 173L120 176V162H119Z" fill="white"/>
<path d="M324 244V246.5" stroke="#FFC107" stroke-width="2" stroke-linejoin="round"/>
<path d="M324 249.43V287.03" stroke="#FFC107" stroke-width="2" stroke-linejoin="round" stroke-dasharray="4.88 2.93"/>
<path d="M324 288.5V291H321.5" stroke="#FFC107" stroke-width="2" stroke-linejoin="round"/>
<path d="M318.61 291H242.95" stroke="#FFC107" stroke-width="2" stroke-linejoin="round" stroke-dasharray="4.82 2.89"/>
<path d="M241.5 291H239" stroke="#FFC107" stroke-width="2" stroke-linejoin="round"/>
<path d="M324 244.65C325.999 244.65 327.62 243.029 327.62 241.03C327.62 239.031 325.999 237.41 324 237.41C322.001 237.41 320.38 239.031 320.38 241.03C320.38 243.029 322.001 244.65 324 244.65Z" fill="#FFC107"/>
<path d="M239 294.62C240.999 294.62 242.62 292.999 242.62 291C242.62 289.001 240.999 287.38 239 287.38C237.001 287.38 235.38 289.001 235.38 291C235.38 292.999 237.001 294.62 239 294.62Z" fill="#FFC107"/>
<path d="M431.7 74H215.3C211.821 74 209 76.8206 209 80.3V226.7C209 230.179 211.821 233 215.3 233H431.7C435.179 233 438 230.179 438 226.7V80.3C438 76.8206 435.179 74 431.7 74Z" fill="#263238"/>
<path opacity="0.4" d="M431.7 74H215.3C211.821 74 209 76.8206 209 80.3V226.7C209 230.179 211.821 233 215.3 233H431.7C435.179 233 438 230.179 438 226.7V80.3C438 76.8206 435.179 74 431.7 74Z" fill="white"/>
<path d="M438 100H209V204H438V100Z" fill="#FFC107"/>
<path opacity="0.4" d="M438 100H209V204H438V100Z" fill="black"/>
<path d="M432 175V153H428V126H423V153H414V193H396V153H364V193H348V195H333V155H327V178H312V171H285V149H281V122H276V149H267V189H249V149H217V189H209V204H348H372H438V175H432Z" fill="#FFC107"/>
<path opacity="0.3" d="M432 175V153H428V126H423V153H414V193H396V153H364V193H348V195H333V155H327V178H312V171H285V149H281V122H276V149H267V189H249V149H217V189H209V204H348H372H438V175H432Z" fill="black"/>
<path d="M264 120H224V204H264V120Z" fill="#FFC107"/>
<g opacity="0.4">
<path d="M264 128H224V129H264V128Z" fill="black"/>
</g>
<path opacity="0.4" d="M264 136H224V137H264V136Z" fill="black"/>
<path opacity="0.4" d="M264 159H224V160H264V159Z" fill="black"/>
<path opacity="0.4" d="M264 167H224V168H264V167Z" fill="black"/>
<path opacity="0.4" d="M264 175H224V176H264V175Z" fill="black"/>
<path opacity="0.4" d="M264 183H224V184H264V183Z" fill="black"/>
<path d="M321 157H282V204H321V157Z" fill="#FFC107"/>
<path opacity="0.4" d="M321 165H282V166H321V165Z" fill="black"/>
<path opacity="0.4" d="M321 173H282V174H321V173Z" fill="black"/>
<path opacity="0.4" d="M321 181H282V182H321V181Z" fill="black"/>
<path d="M378 141H338V204H378V141Z" fill="#FFC107"/>
<path opacity="0.4" d="M378 149H338V150H378V149Z" fill="black"/>
<path opacity="0.4" d="M378 166H338V167H378V166Z" fill="black"/>
<path opacity="0.4" d="M378 189H338V190H378V189Z" fill="black"/>
<path opacity="0.4" d="M378 197H338V198H378V197Z" fill="black"/>
<g opacity="0.2">
<path d="M264 120H224V204H264V120Z" fill="black"/>
</g>
<g opacity="0.2">
<path d="M321 157H282V204H321V157Z" fill="black"/>
</g>
<g opacity="0.2">
<path d="M378 141H338V204H378V141Z" fill="black"/>
</g>
<path d="M416.33 233H342L356.55 155.73C356.96 153.558 358.115 151.597 359.817 150.185C361.519 148.774 363.659 148.001 365.87 148H420.87C422.264 147.999 423.642 148.306 424.904 148.899C426.166 149.492 427.282 150.356 428.172 151.429C429.063 152.502 429.705 153.759 430.054 155.109C430.402 156.459 430.449 157.87 430.19 159.24L416.33 233Z" fill="#FFC107"/>
<path opacity="0.4" d="M416.33 233H342L356.55 155.73C356.96 153.558 358.115 151.597 359.817 150.185C361.519 148.774 363.659 148.001 365.87 148H420.87C422.264 147.999 423.642 148.306 424.904 148.899C426.166 149.492 427.282 150.356 428.172 151.429C429.063 152.502 429.705 153.759 430.054 155.109C430.402 156.459 430.449 157.87 430.19 159.24L416.33 233Z" fill="white"/>
<path opacity="0.2" d="M416.33 233H397L411.56 155.73C411.968 153.557 413.123 151.595 414.825 150.183C416.527 148.772 418.669 147.999 420.88 148C422.274 147.999 423.652 148.306 424.914 148.899C426.176 149.492 427.292 150.356 428.182 151.429C429.073 152.502 429.715 153.759 430.064 155.109C430.412 156.459 430.459 157.87 430.2 159.24L416.33 233Z" fill="black"/>
<path d="M356.5 183C356.5 183 355.39 186 353.62 189.84C350.8 195.99 346.31 204.29 342 205.94C338.47 207.3 329.6 207.55 321.68 207.47C313.76 207.39 307 207 307 207V201L333 194.07C333 194.07 346.72 169.31 354.83 165.64L356.5 183Z" fill="#FFC107"/>
<path opacity="0.2" d="M353.62 189.84C350.8 195.99 346.31 204.29 342 205.94C338.47 207.3 329.6 207.55 321.68 207.47C321.68 207.47 334.35 200.61 338 197C342.05 193 352.48 177.08 352.48 177.08L353.62 189.84Z" fill="black"/>
<path d="M369.05 160.38C371.48 159.27 386 159.27 386 159.27V170L365.5 173.83C365.5 173.83 364.18 162.58 369.05 160.38Z" fill="#FFC107"/>
<path d="M397 233C396.59 223.71 392.68 193.43 398 164.15C393.879 163.432 389.711 163.018 385.53 162.91C379.411 162.688 373.284 162.822 367.18 163.31C363 163.824 358.867 164.667 354.82 165.83C354.82 165.83 349.08 187.16 355.47 233H397Z" fill="white"/>
<path opacity="0.1" d="M383.56 204.56C387.22 203.75 391.65 200.2 395.27 196.7C395.27 190.47 395.57 183.84 396.27 177.08C391.12 184.67 377.24 206 383.56 204.56Z" fill="black"/>
<path d="M383.31 142.34C382.31 148.27 381.36 159.11 385.57 162.96C383.86 164.792 381.803 166.266 379.518 167.296C377.233 168.326 374.766 168.892 372.26 168.96C364.7 169.29 367.26 163.32 367.26 163.32C373.82 161.6 373.54 156.72 372.26 152.16L383.31 142.34Z" fill="#B97964"/>
<path opacity="0.2" d="M378.81 146.36L372.26 152.2C372.568 153.259 372.783 154.343 372.9 155.44C375.41 155.02 378.8 152.19 379.01 149.55C379.139 148.483 379.072 147.402 378.81 146.36Z" fill="black"/>
<path d="M369 127C372.27 129.22 370.78 133 363.37 138.88C360.37 134.98 359.86 127.4 362.26 125.5C364.66 123.6 366.09 125.08 369 127Z" fill="#263238"/>
<path d="M383 133.1C382.64 141.1 382.83 145.81 378.87 149.98C372.87 156.26 362.97 152.77 360.87 144.81C359.05 137.67 359.93 125.81 367.7 122.46C369.413 121.709 371.289 121.411 373.15 121.592C375.011 121.774 376.794 122.43 378.329 123.497C379.864 124.564 381.099 126.008 381.917 127.689C382.735 129.37 383.108 131.233 383 133.1Z" fill="#B97964"/>
<path d="M371.13 135.5C371.13 136.15 370.8 136.68 370.38 136.69C369.96 136.7 369.61 136.18 369.6 135.53C369.59 134.88 369.91 134.35 370.34 134.33C370.77 134.31 371.08 134.86 371.13 135.5Z" fill="#263238"/>
<path d="M363.73 135.64C363.73 136.29 363.4 136.82 362.98 136.83C362.56 136.84 362.2 136.32 362.19 135.66C362.18 135 362.51 134.47 362.94 134.47C363.37 134.47 363.72 135 363.73 135.64Z" fill="#263238"/>
<path d="M366.15 135.9C365.411 137.901 364.402 139.792 363.15 141.52C363.6 141.831 364.113 142.04 364.652 142.131C365.191 142.223 365.743 142.195 366.27 142.05L366.15 135.9Z" fill="#A24E3F"/>
<path d="M373.11 133.13C373.191 133.155 373.279 133.155 373.36 133.13C373.438 133.065 373.488 132.974 373.501 132.874C373.514 132.774 373.489 132.672 373.43 132.59C373.067 132.103 372.592 131.71 372.046 131.444C371.499 131.178 370.897 131.046 370.29 131.06C370.241 131.063 370.194 131.075 370.15 131.096C370.106 131.117 370.067 131.146 370.034 131.182C370.002 131.219 369.977 131.261 369.96 131.307C369.944 131.353 369.937 131.401 369.94 131.45C369.953 131.548 370.002 131.638 370.078 131.701C370.154 131.764 370.251 131.796 370.35 131.79C370.83 131.782 371.305 131.89 371.735 132.104C372.165 132.318 372.537 132.632 372.82 133.02C372.857 133.059 372.902 133.089 372.953 133.108C373.003 133.127 373.057 133.134 373.11 133.13Z" fill="#263238"/>
<path d="M360.32 133.2C360.393 133.197 360.463 133.175 360.524 133.136C360.585 133.097 360.636 133.044 360.67 132.98C360.856 132.537 361.145 132.145 361.514 131.837C361.883 131.529 362.321 131.314 362.79 131.21C362.89 131.193 362.98 131.137 363.04 131.055C363.099 130.973 363.125 130.871 363.11 130.77C363.095 130.673 363.043 130.585 362.965 130.525C362.886 130.465 362.788 130.438 362.69 130.45C362.094 130.573 361.536 130.838 361.064 131.223C360.592 131.608 360.221 132.101 359.98 132.66C359.939 132.75 359.935 132.853 359.968 132.947C360.002 133.04 360.071 133.117 360.16 133.16C360.211 133.183 360.265 133.196 360.32 133.2Z" fill="#263238"/>
<path d="M379.73 126.07C376.01 127.42 376.54 131.44 382.28 138.96C386.16 135.91 388.5 128.68 386.64 126.26C384.78 123.84 383 124.9 379.73 126.07Z" fill="#263238"/>
<path d="M387 139.44C386.473 141.386 385.197 143.043 383.45 144.05C381.13 145.37 379.33 143.44 379.45 140.92C379.55 138.64 380.88 135.21 383.45 134.92C386.02 134.63 387.59 137.05 387 139.44Z" fill="#B97964"/>
<path d="M387.09 127.2C387.09 127.2 388.77 122.5 383.24 118.63C378.47 115.28 365.75 115.75 362.19 119.75C360.027 122.307 358.813 125.532 358.75 128.88L360.69 125.88L360.16 129.63L365.34 125.63L363.73 129.63C363.73 129.63 369.07 128.88 371.73 125.88L370.37 128.6C370.37 128.6 373.64 129 378.01 125.75C378.01 125.75 374.78 129.5 379.08 131.75C383.38 134 387.09 127.2 387.09 127.2Z" fill="#263238"/>
<path d="M372.26 143.38C371.697 144.239 370.908 144.927 369.981 145.368C369.053 145.809 368.022 145.986 367 145.88" stroke="#263238" stroke-width="0.5" stroke-linecap="round" stroke-linejoin="round"/>
<path d="M399.76 233C399.12 213.89 397.95 177.11 398.04 164.15C398.04 164.15 390.1 162.73 386.63 162.95C383.16 163.17 377.36 165.33 377.36 165.33C377.36 165.33 377.23 206.51 381 233H399.76Z" fill="#FFC107"/>
<path opacity="0.2" d="M399.76 233C399.12 213.89 397.95 177.11 398.04 164.15C398.04 164.15 390.1 162.73 386.63 162.95C383.16 163.17 377.36 165.33 377.36 165.33C377.36 165.33 377.23 206.51 381 233H399.76Z" fill="white"/>
<path d="M385.57 159.27L377.37 165.33L380.33 172L389.09 162.81L385.57 159.27Z" fill="#FFC107"/>
<path d="M357.31 233C362.07 170.66 367.98 165.63 367.98 165.63L366.82 162.14L354.82 165.83C349.24 174.03 348.1 215.36 347.87 233H357.31Z" fill="#FFC107"/>
<path opacity="0.2" d="M357.31 233C362.07 170.66 367.98 165.63 367.98 165.63L366.82 162.14L354.82 165.83C349.24 174.03 348.1 215.36 347.87 233H357.31Z" fill="white"/>
<path d="M346 200.41C346 200.41 330.92 199.95 329.38 199.79C327.84 199.63 321.29 195.95 319.91 195.79C318.53 195.63 314.79 201.47 314.33 202.85C313.87 204.23 324.75 207.92 325.83 207.77C327.056 207.444 328.248 207.002 329.39 206.45L346 208.39V200.41Z" fill="#B97964"/>
<path d="M398 164.15C412.09 169.23 387.36 207.38 379.68 211.31C372 215.24 333 207 333 207L334.53 199.11C334.53 199.11 369.05 199.99 372.23 199.19C375.41 198.39 382.97 182.12 387.32 174.44C389.735 169.992 393.465 166.398 398 164.15Z" fill="#FFC107"/>
<path d="M337.33 198L335.33 208.68L331.64 207.32L333.02 198H337.33Z" fill="#FFC107"/>
<path opacity="0.2" d="M337.33 198L335.33 208.68L331.64 207.32L333.02 198H337.33Z" fill="white"/>
<path d="M368.62 160.5C368.62 160.5 362.77 164.5 363.14 168.33L367.98 165.63C367.98 165.63 367.24 162.33 368.62 160.5Z" fill="#FFC107"/>
<path d="M273.58 211.43H365.43C366.027 211.43 366.51 210.946 366.51 210.35V207.66C366.51 207.064 366.027 206.58 365.43 206.58H273.58C272.984 206.58 272.5 207.064 272.5 207.66V210.35C272.5 210.946 272.984 211.43 273.58 211.43Z" fill="#FFC107"/>
<path opacity="0.5" d="M273 207.53V210.23C273 210.83 273 211 273.57 211H365.43C366.03 211 367 210.83 367 210.23V207.53C367 206.94 366 207 365.43 207H273.57C273 207 273 206.94 273 207.53Z" fill="white"/>
<path opacity="0.2" d="M328 207.53V210.23C328 210.83 328.31 211 328.9 211H365.43C366.03 211 367 210.83 367 210.23V207.53C367 206.94 366 207 365.43 207H328.9C328.31 207 328 206.94 328 207.53Z" fill="black"/>
<path d="M280 203V205.94C280 206.69 280.76 207 281.5 207H340.21C340.96 207 342 206.69 342 205.94V203H280Z" fill="#263238"/>
<path opacity="0.6" d="M280 203V205.94C280 206.69 280.76 207 281.5 207H340.21C340.96 207 342 206.69 342 205.94V203H280Z" fill="white"/>
<path opacity="0.2" d="M280 203V205.94C280 206.69 280.76 207 281.5 207H320.22C320.97 207 322 206.69 322 205.94V203H280Z" fill="black"/>
<path d="M270.05 172.5L277.05 204.2C277.179 204.707 277.471 205.158 277.881 205.483C278.291 205.808 278.797 205.99 279.32 206H317.5C317.739 205.996 317.974 205.936 318.186 205.825C318.397 205.714 318.58 205.555 318.719 205.36C318.858 205.166 318.949 204.941 318.986 204.705C319.023 204.469 319.004 204.227 318.93 204L311.93 172.54C311.787 172.06 311.484 171.644 311.07 171.362C310.657 171.08 310.159 170.948 309.66 170.99H271.49C270.46 171 269.82 171.46 270.05 172.5Z" fill="#263238"/>
<path opacity="0.6" d="M270.05 172.5L277.05 204.2C277.179 204.707 277.471 205.158 277.881 205.483C278.291 205.808 278.797 205.99 279.32 206H317.5C317.739 205.996 317.974 205.936 318.186 205.825C318.397 205.714 318.58 205.555 318.719 205.36C318.858 205.166 318.949 204.941 318.986 204.705C319.023 204.469 319.004 204.227 318.93 204L311.93 172.54C311.787 172.06 311.484 171.644 311.07 171.362C310.657 171.08 310.159 170.948 309.66 170.99H271.49C270.46 171 269.82 171.46 270.05 172.5Z" fill="white"/>
<path opacity="0.4" d="M270.05 172.5L277.05 204.2C277.179 204.707 277.471 205.158 277.881 205.483C278.291 205.808 278.797 205.99 279.32 206H316.2C316.439 205.995 316.674 205.935 316.886 205.824C317.098 205.713 317.281 205.554 317.42 205.36C317.56 205.166 317.653 204.942 317.691 204.706C317.729 204.47 317.712 204.228 317.64 204L310.64 172.54C310.496 172.061 310.192 171.647 309.779 171.365C309.366 171.083 308.869 170.95 308.37 170.99H271.49C270.46 171 269.82 171.46 270.05 172.5Z" fill="white"/>
<path opacity="0.2" d="M297.03 189.73L296.38 186.79H286.44L287.09 189.73H297.03Z" fill="black"/>
<path d="M250.28 157.46C250.277 158.057 250.221 158.653 250.11 159.24L236.22 233H215.3C213.629 233 212.027 232.336 210.845 231.155C209.664 229.973 209 228.371 209 226.7V148H240.79C243.303 147.997 245.713 148.992 247.493 150.766C249.272 152.54 250.275 154.947 250.28 157.46Z" fill="#FFC107"/>
<path opacity="0.4" d="M250.28 157.46C250.277 158.057 250.221 158.653 250.11 159.24L236.22 233H215.3C213.629 233 212.027 232.336 210.845 231.155C209.664 229.973 209 228.371 209 226.7V148H240.79C243.303 147.997 245.713 148.992 247.493 150.766C249.272 152.54 250.275 154.947 250.28 157.46Z" fill="white"/>
<path opacity="0.2" d="M236.22 233H216.92L231.48 155.73C231.886 153.558 233.039 151.596 234.739 150.184C236.44 148.772 238.58 148 240.79 148C242.184 147.999 243.562 148.306 244.824 148.899C246.086 149.492 247.202 150.356 248.092 151.429C248.982 152.502 249.625 153.759 249.973 155.109C250.322 156.459 250.369 157.87 250.11 159.24L236.22 233Z" fill="black"/>
<path d="M349.64 95H321.08C318 95 315 97.37 315 100.44V122.44C315 125.51 318 128 321.08 128H337.84L351.57 135.84L346 128H349.69C350.41 127.996 351.122 127.849 351.783 127.565C352.445 127.282 353.044 126.869 353.543 126.351C354.043 125.833 354.433 125.22 354.692 124.548C354.951 123.876 355.073 123.159 355.05 122.44V100.44C355.071 99.7226 354.945 99.0085 354.681 98.3412C354.416 97.6738 354.019 97.0673 353.513 96.5584C353.007 96.0494 352.403 95.6489 351.737 95.381C351.071 95.113 350.358 94.9834 349.64 95Z" fill="white"/>
<path d="M345.891 113.808C347.316 107.771 343.577 101.723 337.541 100.298C331.505 98.8737 325.456 102.612 324.032 108.648C322.607 114.685 326.346 120.733 332.382 122.158C338.418 123.582 344.466 119.844 345.891 113.808Z" fill="#FFC107"/>
<path opacity="0.4" d="M345.891 113.808C347.316 107.771 343.577 101.723 337.541 100.298C331.505 98.8737 325.456 102.612 324.032 108.648C322.607 114.685 326.346 120.733 332.382 122.158C338.418 123.582 344.466 119.844 345.891 113.808Z" fill="white"/>
<path d="M329.67 110.3L334 115.42L341 106" stroke="white" stroke-width="2" stroke-linecap="round" stroke-linejoin="round"/>
</svg>
