<svg width="32" height="32" viewBox="0 0 32 32" fill="none" xmlns="http://www.w3.org/2000/svg">
<path d="M31.33 9.24805C31.1494 8.56723 30.7931 7.9458 30.2967 7.44598C29.8004 6.94616 29.1815 6.58548 28.502 6.40005C26.007 5.72705 16 5.72705 16 5.72705C16 5.72705 5.993 5.72705 3.497 6.40005C2.81774 6.58582 2.19915 6.94662 1.70305 7.44641C1.20695 7.94619 0.850732 8.56744 0.67 9.24805C0 11.7601 0 17.0001 0 17.0001C0 17.0001 0 22.2401 0.67 24.7521C0.850542 25.4329 1.20682 26.0544 1.70315 26.5542C2.19947 27.0541 2.81842 27.4147 3.498 27.6001C5.992 28.2731 15.999 28.2731 15.999 28.2731C15.999 28.2731 26.006 28.2731 28.502 27.6001C29.1818 27.4149 29.8009 27.0543 30.2974 26.5544C30.7939 26.0546 31.1504 25.433 31.331 24.7521C32 22.2401 32 17.0001 32 17.0001C32 17.0001 32 11.7601 31.33 9.24805ZM12.727 21.758V12.2431L21.09 17.0001L12.726 21.757L12.727 21.758Z" fill="url(#paint0_linear_7_349)"/>
<defs>
<linearGradient id="paint0_linear_7_349" x1="16" y1="5.72705" x2="16" y2="28.2731" gradientUnits="userSpaceOnUse">
<stop stop-color="#FFBF00"/>
<stop offset="1" stop-color="#F2A50C"/>
</linearGradient>
</defs>
</svg>
